<?xml version="1.0" standalone="no"?>
<!DOCTYPE svg PUBLIC "-//W3C//DTD SVG 20010904//EN"
 "http://www.w3.org/TR/2001/REC-SVG-20010904/DTD/svg10.dtd">
<svg version="1.0" xmlns="http://www.w3.org/2000/svg"
 width="2800.000000pt" height="2000.000000pt" viewBox="0 0 2800.000000 2000.000000"
 preserveAspectRatio="xMidYMid meet">

<g transform="translate(0.000000,2000.000000) scale(0.100000,-0.100000)"
fill="#000000" stroke="none">
<path d="M17702 19330 c-368 -50 -680 -308 -792 -656 -34 -108 -48 -194 -31
-194 13 0 13 -1 35 100 38 171 121 322 248 449 162 163 367 259 593 277 56 4
84 11 82 18 -5 14 -55 16 -135 6z"/>
<path d="M18050 19295 c0 -8 17 -19 43 -26 62 -16 196 -81 263 -127 69 -47
198 -177 242 -243 101 -150 152 -308 159 -491 l6 -127 46 -7 c147 -20 304 -82
407 -160 80 -62 185 -185 231 -270 69 -130 96 -236 96 -384 1 -89 -4 -145 -17
-195 -21 -83 -81 -214 -127 -282 -135 -197 -364 -331 -599 -351 -53 -4 -85
-12 -88 -19 -5 -18 76 -17 170 1 328 63 590 313 668 638 24 100 27 280 6 379
-55 259 -242 491 -482 600 -68 31 -209 69 -256 69 l-28 0 0 74 c0 194 -70 410
-182 561 -123 165 -256 267 -447 340 -101 39 -111 41 -111 20z"/>
<path d="M10240 18635 c-225 -49 -394 -182 -495 -390 -42 -85 -77 -217 -62
-232 12 -11 18 3 34 74 8 37 33 106 55 153 34 71 56 100 132 176 76 75 108 99
177 132 81 39 191 69 274 74 22 2 40 8 40 13 0 16 -83 15 -155 0z"/>
<path d="M10540 18617 c0 -8 12 -18 28 -22 53 -13 148 -59 208 -101 174 -122
282 -324 287 -537 l2 -87 35 -6 c199 -33 343 -121 440 -270 70 -107 95 -194
95 -329 0 -135 -25 -222 -95 -329 -98 -150 -246 -242 -430 -268 -56 -8 -80
-15 -80 -25 0 -11 12 -12 53 -8 97 11 152 27 236 67 206 98 351 330 351 563 0
143 -64 311 -160 417 -91 102 -246 187 -369 204 l-51 7 0 72 c0 293 -234 588
-525 661 -18 4 -25 2 -25 -9z"/>
<path d="M16525 18519 c-200 -29 -396 -128 -541 -273 -174 -174 -269 -390
-281 -636 -20 -430 243 -821 647 -960 130 -44 338 -68 328 -37 -3 7 -36 14
-90 19 -385 29 -708 293 -825 675 -24 79 -27 104 -27 248 -1 137 2 172 22 244
80 294 282 521 562 634 88 35 234 67 308 67 38 0 52 4 50 13 -6 15 -73 18
-153 6z"/>
<path d="M9439 18050 c-274 -36 -495 -223 -586 -495 -23 -70 -26 -96 -26 -210
0 -114 3 -140 26 -210 73 -222 241 -393 453 -464 65 -21 208 -43 230 -34 26
10 4 20 -58 27 -282 31 -508 211 -594 472 -26 80 -29 102 -29 214 1 108 5 136
28 206 70 210 254 388 457 444 25 7 79 18 121 24 43 6 78 16 78 21 2 13 -30
15 -100 5z"/>
<path d="M20555 17256 c-36 -10 -40 -15 -43 -47 -4 -51 -34 -67 -79 -42 l-34
18 -35 -38 c-34 -37 -34 -38 -18 -68 12 -25 14 -37 5 -56 -24 -52 -4 -60 27
-11 19 29 19 34 6 60 -11 21 -12 33 -4 48 12 23 28 25 63 9 19 -9 31 -7 56 5
26 14 31 22 31 51 0 37 2 39 41 49 23 5 28 1 39 -24 11 -28 40 -42 40 -21 0
14 -41 81 -48 80 -4 0 -25 -6 -47 -13z"/>
<path d="M20702 17231 c-19 -34 -20 -51 -2 -51 3 0 13 13 23 29 15 25 21 28
45 22 22 -6 28 -14 30 -44 3 -30 9 -40 34 -53 28 -15 34 -15 63 -1 30 14 34
14 53 -5 20 -20 20 -23 5 -51 -14 -27 -14 -33 0 -63 13 -27 22 -33 53 -36 31
-2 39 -8 45 -30 6 -24 3 -30 -22 -45 -25 -15 -29 -24 -29 -59 0 -34 4 -43 25
-52 25 -11 31 -34 19 -66 -4 -10 -18 -16 -40 -16 -27 0 -36 -6 -49 -30 -8 -16
-15 -34 -15 -40 0 -20 20 -9 35 20 13 25 22 30 50 30 37 0 48 12 58 67 6 29 3
35 -23 48 -41 21 -41 58 0 81 31 19 32 32 8 97 -9 22 -17 27 -44 27 -46 0 -62
29 -37 70 l17 30 -37 38 -37 37 -31 -17 c-42 -25 -69 -10 -69 38 0 37 -10 44
-76 57 -28 5 -33 2 -52 -32z"/>
<path d="M20261 16979 c-18 -53 -14 -76 19 -96 38 -22 38 -49 0 -71 -32 -18
-37 -39 -19 -91 10 -27 15 -31 49 -31 32 0 39 -4 44 -26 5 -17 1 -35 -9 -51
-16 -25 -16 -26 21 -64 36 -37 37 -38 67 -22 44 22 77 5 77 -41 0 -29 4 -36
31 -45 52 -18 73 -13 91 19 22 39 53 39 73 0 17 -32 30 -35 88 -19 35 9 37 12
37 49 0 47 24 59 70 35 31 -16 32 -16 66 20 19 20 34 41 34 46 0 17 -21 9 -44
-17 -21 -25 -24 -26 -59 -13 -51 18 -90 -4 -95 -53 -2 -18 -9 -36 -15 -40 -24
-16 -54 -8 -65 17 -10 21 -18 25 -57 25 -25 0 -45 -3 -45 -7 0 -5 -7 -16 -15
-26 -10 -15 -21 -17 -44 -12 -28 6 -31 11 -31 43 0 32 -5 39 -34 53 -30 16
-35 16 -59 1 -26 -16 -28 -15 -49 6 -21 21 -22 23 -6 50 13 21 14 32 5 47 -18
33 -34 45 -61 45 -46 0 -63 63 -21 82 21 9 25 18 25 55 0 37 -4 45 -25 55 -14
6 -25 16 -25 22 0 28 14 56 26 56 8 0 14 7 14 15 0 9 -9 15 -24 15 -18 0 -27
-8 -35 -31z"/>
<path d="M6481 16694 c-29 -8 -57 -17 -62 -20 -5 -3 -9 -27 -9 -54 0 -46 -3
-51 -32 -66 -31 -16 -34 -16 -74 6 -49 25 -57 22 -113 -42 l-33 -38 25 -42 24
-41 -19 -34 c-12 -19 -17 -40 -13 -50 5 -14 12 -8 36 30 16 26 29 49 29 52 0
3 -11 23 -24 44 l-25 39 35 36 36 37 42 -25 42 -24 47 25 c46 26 47 27 47 75
0 51 4 55 70 71 23 6 29 1 50 -38 24 -44 34 -53 44 -37 6 10 -51 112 -62 111
-4 0 -31 -7 -61 -15z"/>
<path d="M6695 16660 c-14 -27 -25 -54 -25 -60 0 -23 20 -8 44 34 l26 45 48
-14 c26 -8 49 -15 51 -15 2 0 0 -20 -3 -45 l-7 -45 47 -30 48 -30 45 27 44 26
34 -37 34 -37 -25 -43 -24 -42 29 -47 c28 -46 30 -47 78 -47 48 0 49 -1 55
-36 4 -19 9 -41 12 -47 2 -7 -16 -23 -40 -36 -44 -23 -45 -24 -45 -75 0 -51 1
-53 45 -76 24 -14 42 -30 40 -37 -3 -6 -8 -28 -12 -47 -6 -36 -7 -36 -58 -36
-51 0 -51 0 -78 -50 -15 -27 -24 -51 -19 -54 9 -6 33 18 50 51 9 18 21 23 64
25 50 3 52 4 63 38 28 90 27 96 -22 125 -42 25 -45 29 -42 63 3 32 9 40 46 60
47 26 48 31 18 122 -11 34 -13 35 -64 38 -49 3 -54 6 -69 37 -15 31 -15 35 6
68 27 45 27 50 -10 92 -48 55 -62 59 -111 34 -39 -20 -43 -20 -74 -5 -30 14
-33 19 -36 67 -3 50 -5 53 -38 64 -19 7 -50 15 -67 18 -31 6 -34 4 -58 -43z"/>
<path d="M9653 16648 c2 -8 22 -13 52 -13 30 0 50 5 53 13 3 9 -12 12 -53 12
-41 0 -56 -3 -52 -12z"/>
<path d="M9823 16648 c3 -10 106 -13 472 -13 366 0 469 3 473 13 3 9 -96 12
-473 12 -377 0 -476 -3 -472 -12z"/>
<path d="M16837 16624 c-18 -18 -2 -24 64 -24 52 0 70 3 67 13 -5 13 -119 23
-131 11z"/>
<path d="M17067 16623 c-4 -3 -7 -10 -7 -15 0 -4 288 -8 640 -8 562 0 640 2
640 15 0 13 -77 15 -633 15 -349 0 -637 -3 -640 -7z"/>
<path d="M8005 16573 c-11 -2 -50 -13 -87 -24 l-68 -20 0 -67 0 -67 -40 -22
c-21 -13 -44 -23 -49 -23 -6 0 -32 14 -58 30 -26 17 -50 30 -54 30 -11 0 -129
-120 -129 -131 0 -5 14 -32 32 -60 l31 -52 -26 -47 c-15 -27 -27 -53 -27 -59
0 -25 21 -7 54 46 l35 58 -22 35 c-11 19 -27 45 -34 56 -13 20 -10 26 37 72
l51 51 56 -34 57 -34 40 25 c23 14 49 28 59 31 14 4 17 17 17 73 l0 68 48 15
c92 29 87 30 122 -34 28 -54 50 -75 50 -49 0 14 -58 128 -67 133 -5 2 -17 2
-28 0z"/>
<path d="M8246 16542 c-43 -69 -57 -100 -45 -107 13 -8 10 -12 48 57 18 31 38
55 44 53 7 -2 38 -11 70 -20 l57 -16 0 -67 0 -67 58 -32 58 -31 54 33 55 34
50 -50 50 -50 -32 -58 -33 -59 33 -56 32 -55 67 -1 67 0 16 -52 c24 -83 22
-90 -40 -121 l-55 -27 0 -69 0 -70 52 -28 c29 -15 54 -36 56 -45 2 -10 -4 -43
-13 -73 l-16 -55 -67 0 -67 0 -33 -59 c-48 -88 -16 -91 34 -3 18 31 20 32 86
32 l67 0 21 66 c32 105 29 118 -32 151 -53 28 -53 28 -56 80 l-3 52 55 32 c65
36 68 48 36 153 l-21 66 -70 0 -69 0 -22 44 -21 44 33 57 33 57 -65 65 -65 65
-60 -33 -59 -33 -45 25 -44 24 3 67 4 66 -49 16 c-26 8 -67 20 -91 25 -42 9
-43 9 -66 -27z"/>
<path d="M19677 16514 c-94 -23 -97 -25 -97 -99 0 -41 -4 -65 -11 -65 -6 0
-24 -9 -39 -20 l-29 -21 -49 31 c-27 16 -54 30 -59 30 -12 0 -123 -109 -123
-121 0 -5 14 -31 30 -58 l30 -49 -25 -43 c-14 -24 -25 -50 -25 -56 0 -28 20
-10 49 43 l32 55 -31 53 -30 53 47 46 47 46 52 -30 53 -30 55 32 56 31 0 63 0
63 62 15 c48 12 65 13 70 4 4 -7 18 -30 30 -51 24 -40 48 -58 48 -34 -1 18
-63 121 -75 124 -6 1 -36 -4 -68 -12z"/>
<path d="M19962 16518 c-20 -26 -61 -116 -55 -122 12 -12 19 -5 48 49 20 36
35 53 45 51 8 -2 36 -9 63 -16 l47 -13 0 -62 0 -63 56 -32 56 -31 54 31 54 30
46 -45 45 -46 -30 -53 -31 -53 31 -56 31 -57 62 0 63 0 17 -61 c10 -33 15 -64
11 -67 -3 -3 -27 -18 -53 -32 l-47 -25 0 -65 0 -64 40 -23 c22 -13 46 -27 53
-32 12 -6 11 -18 -3 -69 l-18 -62 -63 0 -64 0 -27 -52 c-15 -29 -29 -56 -31
-60 -2 -5 3 -8 12 -8 8 0 27 20 42 45 l26 45 64 0 63 0 16 53 c8 28 16 67 17
86 3 32 -1 37 -49 65 -52 29 -53 31 -53 76 0 45 1 47 53 76 59 35 61 44 31
147 l-17 57 -63 0 -62 0 -25 42 -24 42 30 49 c27 44 28 51 16 74 -15 27 -96
103 -110 103 -5 0 -30 -13 -57 -30 l-47 -29 -40 23 c-39 24 -40 25 -43 89 l-3
65 -78 21 c-91 25 -86 24 -99 9z"/>
<path d="M6566 16330 c-47 -15 -106 -61 -132 -106 -49 -83 -40 -188 21 -268
30 -40 104 -79 137 -74 20 3 16 7 -24 27 -124 60 -169 175 -112 289 29 57 88
101 152 111 44 7 56 31 15 30 -15 0 -41 -5 -57 -9z"/>
<path d="M6059 16303 c-6 -16 -13 -48 -16 -73 -5 -46 -5 -46 36 -64 38 -18 41
-22 41 -57 0 -34 -4 -41 -41 -61 -40 -23 -40 -24 -36 -68 3 -25 10 -57 16 -72
10 -26 14 -28 71 -28 47 0 60 3 60 15 0 11 -12 15 -49 15 -56 0 -58 1 -67 58
-6 40 -5 41 35 61 40 21 41 22 41 76 0 52 -1 54 -40 76 -42 24 -44 28 -34 79
5 21 15 35 30 41 34 12 30 29 -6 29 -24 0 -33 -6 -41 -27z"/>
<path d="M6700 16313 c0 -5 17 -17 37 -28 48 -26 91 -88 101 -145 8 -48 25
-60 30 -21 8 55 -52 157 -109 186 -30 16 -59 20 -59 8z"/>
<path d="M7999 16197 c-198 -68 -321 -274 -289 -485 26 -168 155 -315 316
-361 44 -12 68 4 28 19 -84 33 -158 77 -200 118 -92 92 -138 234 -116 355 34
183 171 318 355 349 37 6 67 15 67 19 0 17 -96 8 -161 -14z"/>
<path d="M19760 16186 c-166 -47 -280 -172 -311 -340 -24 -126 22 -266 117
-362 76 -75 224 -142 224 -100 0 9 -8 16 -17 16 -10 0 -45 13 -78 29 -76 36
-156 118 -192 196 -24 52 -28 72 -28 155 0 86 3 101 31 160 58 121 180 212
305 226 40 4 59 11 59 20 0 17 -48 17 -110 0z"/>
<path d="M8290 16183 c0 -5 25 -21 54 -36 69 -36 150 -121 181 -189 13 -29 29
-83 35 -120 16 -88 35 -90 28 -4 -10 124 -100 262 -213 327 -48 28 -85 37 -85
22z"/>
<path d="M20000 16158 c0 -7 18 -22 40 -32 115 -55 210 -202 210 -323 0 -24 4
-33 16 -33 14 0 16 8 11 53 -13 122 -79 232 -185 304 -64 44 -92 53 -92 31z"/>
<path d="M7392 16053 c-17 -45 -31 -96 -34 -127 -3 -27 3 -33 55 -64 57 -34
57 -34 57 -83 0 -48 0 -48 -57 -82 -66 -38 -67 -43 -35 -152 l18 -60 77 0 c95
0 103 18 11 25 l-67 5 -12 42 c-29 97 -31 89 33 123 l58 31 0 69 0 69 -57 31
-57 30 14 63 c17 69 20 74 52 79 36 5 30 23 -9 26 -32 3 -37 0 -47 -25z"/>
<path d="M6822 16020 c-27 -59 -85 -106 -141 -116 -57 -9 -66 -13 -54 -25 18
-18 89 0 141 34 49 33 92 96 92 135 0 36 -13 26 -38 -28z"/>
<path d="M19151 16043 c-8 -17 -20 -58 -35 -125 -6 -25 -1 -30 49 -59 55 -31
55 -31 55 -79 0 -48 0 -48 -55 -79 -61 -35 -61 -37 -26 -146 l16 -50 73 0 c90
0 97 19 8 23 l-64 3 -12 47 c-7 26 -14 54 -16 62 -2 10 15 25 51 45 l55 29 0
66 0 65 -55 30 c-38 20 -54 34 -50 45 2 8 9 36 16 63 10 42 14 47 40 47 19 0
29 5 29 15 0 22 -67 20 -79 -2z"/>
<path d="M6190 15858 c0 -7 4 -19 9 -27 7 -10 2 -28 -16 -58 l-25 -43 23 -28
c13 -15 36 -38 52 -51 l28 -23 44 23 c43 23 46 23 72 7 23 -14 29 -25 31 -65
2 -26 6 -51 10 -55 4 -4 35 -14 69 -22 l62 -14 26 44 c23 40 30 44 63 44 35 0
40 -4 60 -45 20 -42 23 -44 54 -38 18 3 49 11 68 18 33 11 35 14 38 64 3 48 6
53 38 68 33 16 36 16 74 -6 38 -21 43 -22 65 -7 33 22 78 83 70 96 -4 6 -25
-9 -50 -35 l-44 -46 -41 26 -41 26 -50 -28 -50 -28 6 -46 c6 -45 6 -47 -26
-58 -56 -19 -73 -14 -98 29 -22 39 -24 40 -75 40 -53 0 -54 -1 -76 -44 l-23
-43 -46 12 -46 11 -3 50 c-3 47 -5 51 -48 77 l-46 28 -42 -25 -43 -25 -35 36
-35 35 24 44 c23 41 23 44 7 68 -17 28 -34 34 -34 14z"/>
<path d="M8566 15753 c-12 -13 -6 -53 9 -53 9 0 15 9 15 24 0 26 -12 40 -24
29z"/>
<path d="M20256 15748 c-39 -141 -75 -210 -137 -262 -51 -43 -150 -87 -213
-93 -38 -4 -56 -10 -56 -19 0 -18 41 -18 115 2 116 30 212 105 264 206 17 35
33 77 36 93 2 17 7 40 10 51 4 12 2 25 -4 29 -6 3 -13 0 -15 -7z"/>
<path d="M8554 15673 c-53 -164 -184 -278 -349 -305 -84 -14 -85 -32 -1 -26
83 5 194 59 260 125 47 48 116 169 116 204 0 24 -19 25 -26 2z"/>
<path d="M9793 15470 c-107 -25 -221 -121 -271 -227 l-27 -58 -5 -1715 -5
-1715 -64 -110 c-104 -179 -271 -532 -426 -895 -31 -74 -59 -138 -61 -141 -1
-3 -38 1 -81 10 -114 22 -648 21 -882 -2 -118 -12 -178 -14 -186 -7 -22 18
-127 50 -165 50 -23 0 -48 -8 -63 -21 l-27 -20 -72 39 c-198 108 -513 178
-907 202 -97 6 -221 17 -276 25 -55 8 -138 17 -185 20 -47 4 -91 9 -99 11 -23
7 16 30 137 80 140 59 152 67 152 105 0 81 -183 149 -403 149 -87 0 -107 7
-107 37 0 23 3 25 28 20 65 -13 280 -18 339 -9 141 24 163 54 163 224 0 95
-24 310 -45 409 -6 25 -4 26 53 31 32 3 77 15 100 27 74 38 70 89 -17 268
l-60 121 15 49 c34 113 26 312 -17 395 -23 45 -60 72 -87 64 -17 -6 -20 1 -24
72 -7 97 -27 147 -205 504 l-133 268 54 70 c78 101 110 171 114 250 4 77 -18
121 -72 147 -33 15 -38 15 -81 -1 -25 -10 -72 -42 -103 -71 l-57 -53 0 107 c0
118 -17 172 -70 225 -115 115 -288 43 -416 -173 l-37 -61 -22 55 c-27 67 -89
139 -142 166 -52 27 -122 34 -189 20 -117 -25 -156 -79 -170 -232 -14 -162
-32 -186 -184 -249 -449 -187 -668 -375 -706 -608 l-12 -71 -49 65 c-49 64
-98 104 -129 104 -8 0 -26 -12 -40 -26 -36 -38 -33 -120 6 -192 32 -59 131
-157 195 -193 29 -16 39 -27 34 -39 -23 -55 -54 -166 -59 -217 -9 -75 6 -123
47 -158 42 -36 68 -29 94 23 l22 42 22 -72 c71 -239 185 -461 334 -647 111
-138 309 -309 458 -395 27 -16 50 -31 52 -35 4 -6 -16 -187 -29 -268 -5 -31
-6 -31 -78 -38 -149 -14 -278 -35 -307 -50 -54 -28 -72 -69 -67 -155 2 -48 11
-93 25 -123 15 -34 18 -49 9 -51 -7 -2 -95 -20 -197 -39 -260 -51 -331 -73
-442 -140 -245 -149 -413 -335 -479 -534 -17 -53 -24 -63 -44 -63 -56 0 -102
-106 -131 -302 -9 -62 -20 -117 -24 -123 -10 -13 -296 -584 -357 -713 -473
-1004 -722 -1783 -673 -2108 15 -100 41 -179 97 -293 184 -375 642 -862 1318
-1402 117 -93 414 -317 427 -321 9 -3 15 -60 20 -189 9 -186 11 -198 50 -211
4 -2 2 -48 -6 -103 -31 -210 -66 -749 -66 -1029 -1 -112 -4 -151 -19 -191 -10
-27 -35 -95 -56 -150 -94 -253 -120 -532 -69 -723 l6 -22 -406 0 c-354 0 -406
-2 -406 -15 0 -13 53 -15 413 -15 l412 0 25 -41 c30 -49 84 -82 170 -103 283
-68 603 -40 998 90 l166 54 843 0 842 0 -24 -25 c-35 -34 -35 -112 -1 -152
l24 -28 2789 -3 c2490 -2 2792 -1 2829 13 57 22 92 63 113 131 l17 59 1644 0
1643 0 14 -50 c8 -27 25 -64 38 -81 51 -67 -170 -61 2648 -65 l2559 -4 19 24
c25 31 27 126 2 153 -16 17 -1 18 432 18 l448 0 56 -48 c264 -229 409 -232
645 -11 l64 59 544 0 c588 0 791 6 785 24 -2 6 -35 12 -75 14 l-72 3 0 407 c0
429 -12 916 -30 1217 -12 188 -46 576 -56 633 -5 27 -3 32 14 32 20 0 20 3 15
319 l-6 318 48 16 c145 50 256 183 273 330 l9 68 89 90 c75 75 91 87 100 74 6
-8 16 -15 22 -15 6 0 93 71 193 157 788 680 1367 1298 1436 1533 48 163 -4
394 -162 715 -199 406 -484 827 -1135 1675 -379 495 -463 616 -485 700 -7 28
-25 70 -39 94 -51 88 -210 212 -395 308 -73 38 -85 47 -96 82 -51 148 -329
254 -820 311 -129 15 -792 23 -826 10 -50 -19 -176 432 -233 836 l-7 46 47 7
c60 8 113 38 145 84 23 33 107 235 140 337 21 67 17 154 -9 199 l-23 39 25 76
c84 253 92 496 27 766 -16 66 -34 149 -40 184 -15 91 -61 182 -123 244 -170
168 -462 210 -1033 147 -218 -24 -314 -25 -404 -4 -138 31 -196 94 -196 212
l0 63 -40 -7 c-220 -36 -436 -178 -539 -354 -106 -181 -130 -364 -64 -493 27
-53 93 -123 146 -154 l43 -26 -25 -26 c-29 -30 -56 -90 -56 -123 0 -41 19 -92
53 -147 l34 -54 16 71 c24 107 89 222 124 222 12 0 14 -7 9 -32 -10 -49 -74
-397 -81 -440 -3 -21 -12 -38 -19 -38 -18 0 -96 -69 -96 -86 0 -21 7 -18 53
21 22 19 43 35 47 35 3 0 4 -16 2 -35 -3 -24 -16 -47 -42 -73 -29 -29 -40 -49
-45 -85 -10 -62 8 -132 46 -179 27 -35 29 -42 29 -132 0 -52 7 -148 15 -213
60 -462 186 -767 361 -877 l55 -34 -88 -7 c-205 -16 -485 -72 -568 -113 -175
-87 -320 -263 -427 -520 -31 -73 -52 -107 -87 -142 -183 -178 -470 -654 -732
-1212 -35 -76 -66 -138 -69 -138 -9 0 -109 158 -288 455 -95 160 -179 296
-185 304 -9 11 -13 685 -17 2675 l-5 2661 -33 67 c-42 85 -105 148 -190 190
l-67 33 -3895 2 c-2142 0 -3909 -2 -3927 -7z m7833 -37 c136 -45 233 -164 254
-310 6 -43 10 -1006 9 -2633 0 -2299 -1 -2563 -15 -2545 -8 11 -50 81 -92 155
l-77 135 -5 1970 -5 1970 -32 65 c-52 106 -122 171 -226 209 l-58 21 -3678 0
c-3404 0 -3681 -1 -3727 -17 -108 -36 -186 -107 -238 -213 l-31 -65 -5 -1065
c-4 -890 -7 -1070 -19 -1092 -8 -16 -19 -28 -24 -28 -11 0 -20 -10 -87 -104
l-50 -69 2 1684 3 1684 27 52 c51 96 109 149 207 189 l56 24 3881 0 c3585 0
3884 -1 3930 -17z m-12098 -1169 c-3 -33 -28 -56 -28 -25 0 11 4 21 10 21 5 0
7 7 4 15 -4 8 -1 15 5 15 6 0 10 -12 9 -26z m-614 -47 c-4 -12 -2 -17 4 -13 6
4 8 -2 4 -16 -5 -20 -7 -19 -18 12 -18 51 -18 66 1 50 10 -8 13 -21 9 -33z
m601 -34 c-5 -10 -9 -24 -11 -31 -4 -20 -13 -27 -21 -17 -5 4 -2 10 5 12 6 3
10 9 7 14 -7 10 14 53 22 45 3 -3 2 -13 -2 -23z m-572 -41 c4 -21 3 -31 -3
-27 -6 3 -10 20 -10 37 0 38 5 34 13 -10z m13 -139 c-5 -95 -9 -114 -38 -155
-26 -38 -42 -36 -23 2 9 18 20 28 27 24 8 -5 9 -1 5 11 -4 9 -2 24 5 32 6 8
12 40 13 71 3 87 5 102 10 102 3 0 3 -39 1 -87z m959 17 c-10 -11 -20 -18 -23
-15 -7 6 18 35 31 35 5 0 2 -9 -8 -20z m-38 -44 c-10 -8 -18 -17 -18 -20 1 -3
-1 -5 -3 -3 -2 1 -12 -7 -22 -18 -24 -27 -6 3 20 33 11 12 24 22 30 22 6 0 3
-7 -7 -14z m-447 -5 c0 -13 -72 -96 -81 -94 -4 2 -10 -6 -14 -16 -6 -19 -59
-71 -72 -71 -5 0 -15 -6 -25 -14 -9 -8 -19 -12 -22 -9 -3 4 -6 1 -6 -5 0 -7
-4 -12 -10 -12 -5 0 -19 -9 -30 -20 -11 -11 -32 -23 -47 -26 -16 -4 -31 -12
-35 -18 -5 -8 -10 -8 -18 0 -7 7 6 16 46 28 31 10 53 20 50 23 -4 5 90 73 101
73 8 0 102 102 107 117 3 8 10 12 15 9 9 -6 26 22 23 37 -1 4 3 7 8 7 6 0 10
-4 10 -9z m9885 -36 c25 -14 49 -39 59 -60 9 -19 31 -130 49 -245 36 -242 33
-268 -34 -322 -36 -29 -50 -32 -550 -108 -672 -103 -1328 -203 -1609 -245
-124 -19 -313 -48 -420 -64 -107 -16 -359 -55 -560 -85 -570 -87 -607 -93
-1089 -167 -249 -38 -469 -69 -488 -69 -51 0 -160 50 -174 80 -6 14 -26 119
-44 234 l-32 210 28 62 c21 46 36 65 61 77 18 8 125 30 238 47 113 17 394 60
625 95 231 35 598 91 815 124 217 33 782 119 1255 191 473 72 1024 156 1225
186 201 30 399 61 440 69 117 20 157 18 205 -10z m-9524 -57 c-13 -10 -20 -18
-16 -18 4 0 2 -7 -5 -15 -26 -31 -29 -2 -3 30 15 19 31 31 37 28 5 -4 -1 -14
-13 -25z m-97 -95 c-55 -52 -168 -143 -178 -143 -4 0 -17 -9 -29 -21 -12 -11
-39 -28 -59 -36 -22 -9 -35 -20 -31 -26 3 -6 1 -7 -6 -3 -16 10 -7 21 30 36
17 8 46 26 63 42 17 15 34 28 38 28 5 0 22 12 39 28 17 15 33 25 36 22 2 -3 9
3 14 13 6 10 29 31 51 47 23 17 37 30 33 30 -12 0 27 29 39 30 5 0 -13 -21
-40 -47z m-958 -58 c-10 -8 -23 -12 -28 -9 -5 3 -14 2 -21 -4 -22 -16 -44 -20
-58 -10 -12 8 -12 9 0 6 8 -3 30 3 48 12 18 9 43 16 55 17 22 2 22 1 4 -12z
m1236 -246 c198 -394 211 -427 216 -535 3 -55 0 -106 -7 -127 -11 -34 -15 -36
-64 -41 -85 -10 -739 -56 -785 -56 l-43 0 45 88 c25 48 66 112 91 142 43 52
65 101 65 145 0 11 -18 71 -40 134 -22 63 -40 129 -40 146 0 52 66 127 202
228 68 50 212 137 222 134 6 -2 68 -118 138 -258z m-1357 210 c4 -6 1 -9 -6
-8 -8 1 -36 -7 -62 -19 -27 -12 -53 -20 -58 -16 -5 3 -9 0 -9 -5 0 -6 -4 -11
-10 -11 -22 0 -8 20 18 26 15 4 32 11 39 16 7 5 17 7 23 3 5 -3 10 -2 10 4 0
8 15 15 42 20 4 0 10 -4 13 -10z m16600 -28 c139 -50 159 -124 81 -311 -30
-72 -42 -136 -32 -173 3 -14 29 -49 58 -78 30 -31 67 -83 86 -121 31 -65 83
-227 77 -238 -2 -3 -149 7 -326 22 -281 24 -324 29 -343 46 -48 45 -87 56
-186 57 -79 0 -103 -4 -142 -23 -26 -13 -56 -37 -67 -55 -18 -28 -23 -31 -68
-28 -27 1 -69 -5 -93 -13 -44 -15 -46 -15 -84 12 -33 23 -52 28 -118 31 -77 3
-78 4 -78 30 0 14 4 32 9 39 15 24 82 25 146 3 93 -34 95 -34 95 -22 0 7 -25
24 -56 38 -42 19 -73 26 -120 26 -60 0 -63 1 -59 21 2 11 20 111 40 221 20
110 41 225 48 255 l12 55 110 55 c154 78 335 134 530 165 137 22 401 14 480
-14z m-16240 -26 c-48 -25 -90 -43 -93 -40 -4 3 4 8 16 12 12 3 19 9 16 14 -3
5 1 9 8 9 7 0 33 11 58 25 25 13 54 24 64 25 10 0 -21 -20 -69 -45z m17124 18
c27 -65 43 -177 47 -327 3 -88 2 -167 -2 -175 -4 -9 -8 -38 -9 -66 -1 -27 -7
-51 -14 -53 -7 -2 -8 -14 -5 -29 5 -17 3 -24 -4 -19 -6 4 -8 -1 -5 -13 3 -10
0 -22 -6 -25 -6 -4 -11 -18 -11 -31 0 -31 -31 -96 -42 -89 -4 3 -6 9 -4 13 3
4 -31 7 -74 6 -76 -1 -80 -2 -137 -46 -32 -24 -61 -43 -64 -42 -4 1 -6 -5 -5
-15 1 -15 -10 -17 -114 -14 -63 2 -119 7 -123 11 -4 5 -9 20 -11 35 -1 14 -6
29 -9 33 -4 3 -7 14 -7 23 0 10 -9 38 -21 64 -11 25 -17 50 -14 55 3 5 0 13
-5 16 -9 6 -27 41 -33 65 0 3 -9 14 -19 24 -10 12 -16 29 -13 40 3 12 2 15 -1
9 -8 -19 -27 -16 -20 3 3 8 2 13 -3 10 -14 -9 -74 61 -67 79 3 9 2 13 -4 10
-6 -3 -10 1 -10 11 0 28 23 94 32 94 5 0 6 4 3 10 -3 5 2 24 11 42 9 17 24 60
34 94 17 58 17 64 0 113 -9 28 -14 51 -11 51 3 1 -9 9 -28 19 -33 17 -28 18
245 17 305 -1 437 4 456 16 27 17 55 8 67 -19z m-17649 -23 c0 -5 -2 -10 -4
-10 -3 0 -8 5 -11 10 -3 6 -1 10 4 10 6 0 11 -4 11 -10z m-24 -12 c5 -8 2 -9
-10 -5 -10 4 -19 1 -22 -8 -4 -8 -10 -12 -16 -9 -5 3 -1 12 9 20 22 17 30 17
39 2z m444 -28 c0 -5 -5 -10 -11 -10 -5 0 -7 5 -4 10 3 6 8 10 11 10 2 0 4 -4
4 -10z m-533 -19 c-21 -10 -63 -40 -93 -66 -30 -26 -57 -45 -60 -42 -3 2 6 14
20 25 14 10 23 22 21 26 -3 3 -2 4 1 1 4 -2 21 7 38 22 31 26 82 53 101 52 6
0 -7 -9 -28 -18z m503 -1 c0 -5 -11 -12 -25 -16 -14 -3 -25 -10 -25 -16 0 -5
-5 -6 -11 -2 -8 4 1 14 22 25 41 22 39 21 39 9z m531 -27 c-1 -4 -4 -8 -8 -8
-5 0 -20 -9 -35 -19 -15 -10 -32 -15 -38 -11 -5 3 -10 1 -10 -4 0 -6 -6 -11
-14 -11 -8 0 -22 -7 -30 -16 -9 -9 -22 -17 -29 -18 -6 -1 -18 -5 -24 -9 -7 -5
-17 -5 -23 -2 -5 3 -10 2 -10 -4 0 -5 -9 -9 -19 -8 -25 2 -18 13 12 21 13 3
50 18 83 32 32 15 63 27 68 25 5 -1 12 2 15 6 8 12 55 41 59 38 2 -2 3 -7 3
-12z m-625 -32 c-17 -11 -33 -18 -37 -15 -4 2 -17 -8 -29 -23 -12 -16 -25 -28
-30 -28 -4 0 -22 -15 -39 -32 -17 -18 -36 -33 -42 -33 -5 0 -7 -4 -4 -10 3 -5
-2 -10 -11 -10 -10 0 -14 -3 -11 -6 9 -9 -51 -84 -66 -84 -7 0 -4 5 6 11 9 5
17 14 17 20 0 14 17 34 80 96 62 62 130 118 130 108 0 -3 10 1 22 9 12 9 27
16 33 16 5 0 -3 -9 -19 -19z m-572 -60 c3 -5 -2 -15 -12 -22 -15 -12 -16 -12
-5 2 7 9 10 19 6 22 -3 4 -4 7 0 7 3 0 8 -4 11 -9z m921 -20 c3 -5 1 -12 -5
-16 -5 -3 -10 1 -10 9 0 18 6 21 15 7z m-978 -78 c-17 -32 -34 -59 -38 -61 -4
-2 -5 -11 -2 -20 4 -14 3 -14 -5 -3 -11 15 -5 41 9 41 4 0 5 7 2 17 -4 11 -3
14 5 9 7 -4 13 -1 13 8 2 24 4 29 17 54 7 12 17 20 22 17 4 -3 -6 -31 -23 -62z
m6337 -58 c-1 -65 -35 -150 -91 -233 -60 -87 -73 -121 -72 -184 2 -140 83
-230 279 -311 213 -88 301 -89 553 -4 258 87 325 93 361 34 9 -16 5 -24 -28
-52 -21 -19 -58 -42 -83 -51 -24 -9 -42 -22 -40 -27 2 -6 33 -12 70 -13 73 -2
132 -25 154 -61 13 -19 12 -23 -7 -33 -11 -6 -62 -16 -113 -21 -208 -23 -421
-50 -428 -55 -21 -13 -4 -22 64 -34 154 -27 277 -78 277 -116 0 -32 -49 -37
-195 -20 -161 19 -265 21 -265 6 0 -6 8 -13 18 -16 67 -21 156 -59 196 -84 35
-23 46 -36 46 -55 0 -47 -19 -45 -252 19 -87 24 -657 102 -681 93 -7 -2 -28
-63 -47 -135 l-34 -130 -41 33 c-73 59 -188 104 -323 125 -37 6 -68 12 -69 14
-2 2 27 70 63 152 42 94 82 206 109 304 57 207 127 414 171 506 26 54 65 109
144 198 128 145 202 208 239 204 24 -3 26 -7 25 -53z m-5570 27 c-12 -9 -30
-35 -40 -56 -10 -23 -20 -34 -22 -26 -3 8 0 16 7 18 6 2 11 11 11 20 0 18 38
62 54 62 6 0 1 -8 -10 -18z m-814 -112 c0 -13 -1 -13 -10 0 -5 8 -10 22 -10
30 0 13 1 13 10 0 5 -8 10 -22 10 -30z m398 15 c-3 -3 -9 2 -12 12 -6 14 -5
15 5 6 7 -7 10 -15 7 -18z m-34 -40 c-9 -13 -13 -29 -9 -35 3 -5 1 -10 -5 -10
-6 0 -9 -4 -6 -9 4 -5 1 -22 -6 -38 -14 -34 -15 -44 -21 -196 -3 -65 -8 -121
-12 -125 -3 -4 -5 51 -4 121 2 70 6 127 10 127 3 0 6 18 5 40 0 25 5 44 13 49
7 5 11 13 8 17 -3 5 2 25 10 44 9 19 15 39 14 43 -1 5 3 6 9 2 6 -4 4 -15 -6
-30z m401 14 c-5 -15 -4 -19 4 -15 6 4 11 0 11 -11 0 -10 14 -40 30 -68 32
-54 38 -73 16 -53 -8 7 -13 15 -11 16 2 2 -4 12 -13 23 -9 11 -17 23 -17 27
-1 4 -8 21 -18 39 -9 17 -14 39 -11 47 9 24 16 19 9 -5z m-788 -56 c-3 -10 -5
-2 -5 17 0 19 2 27 5 18 2 -10 2 -26 0 -35z m17 -128 c4 -55 4 -97 0 -93 -7 7
-10 23 -21 115 -5 45 1 93 11 82 2 -2 7 -49 10 -104z m861 15 c-3 -5 -1 -10 5
-10 6 0 9 -3 6 -8 -2 -4 2 -16 10 -27 8 -10 14 -15 14 -10 0 11 59 -67 60 -78
0 -5 11 -23 24 -40 27 -36 50 -87 38 -87 -4 0 -24 31 -43 70 -20 38 -40 66
-44 62 -5 -4 -5 -1 -1 6 5 8 -4 23 -21 40 -49 48 -65 70 -58 81 3 6 8 11 11
11 3 0 2 -4 -1 -10z m-826 -184 c7 -27 9 -51 6 -54 -3 -3 -5 2 -5 11 0 10 -4
17 -8 17 -4 0 -8 8 -9 18 -1 9 -4 31 -8 47 -11 50 11 15 24 -39z m2194 -18
c11 -15 19 -29 16 -32 -2 -2 -23 -7 -46 -11 -42 -7 -43 -6 -43 22 0 57 38 68
73 21z m14430 1 c61 -17 98 -56 104 -111 7 -62 -1 -91 -40 -134 -81 -93 -222
-99 -307 -14 -93 93 -70 221 47 257 49 15 147 16 196 2z m1291 -23 c44 -18 83
-71 92 -122 8 -53 -11 -127 -79 -298 -75 -187 -119 -230 -231 -225 -29 1 -57
-1 -63 -4 -6 -4 -21 -49 -33 -100 -27 -113 -47 -162 -104 -241 -175 -246 -601
-498 -966 -572 -246 -50 -398 50 -516 340 -71 174 -133 482 -141 702 l-5 130
64 -4 c72 -5 110 9 153 56 41 44 58 103 53 176 l-6 65 31 10 c16 6 51 11 76
11 l46 0 12 -61 c26 -136 152 -213 294 -179 42 10 64 24 105 65 56 56 69 91
62 165 l-4 40 71 -6 c38 -3 183 -16 320 -28 l250 -21 15 -72 c17 -79 36 -107
86 -123 43 -15 71 0 91 48 21 52 95 153 139 192 40 35 108 69 137 70 10 0 33
-6 51 -14z m-17617 -58 c-3 -8 -6 -5 -6 6 -1 11 2 17 5 13 3 -3 4 -12 1 -19z
m15702 11 c74 -16 111 -61 111 -135 0 -69 -17 -111 -63 -151 -45 -39 -92 -50
-138 -30 l-34 14 0 149 0 149 30 6 c17 4 33 7 37 8 4 0 30 -4 57 -10z m-13766
-54 c9 -41 3 -212 -9 -252 -3 -13 -10 -23 -14 -23 -4 0 -29 37 -54 81 -39 69
-46 90 -46 135 0 29 4 64 10 79 9 24 14 26 57 23 46 -3 47 -4 56 -43z m-178
-113 c0 -131 3 -152 23 -196 12 -27 30 -55 40 -62 23 -18 62 -17 82 1 15 14
21 6 68 -92 69 -147 76 -176 51 -207 -23 -29 -74 -46 -142 -46 -30 0 -49 -5
-53 -13 -3 -8 4 -63 15 -124 31 -171 44 -350 32 -418 -17 -92 -57 -110 -246
-110 -71 0 -164 2 -205 5 l-75 5 -3 -37 -3 -38 -117 0 c-145 0 -475 -15 -685
-31 -86 -7 -159 -10 -161 -8 -3 2 4 68 14 146 l18 142 42 48 c71 81 157 291
177 431 l6 42 -33 0 c-113 0 -240 185 -240 349 0 148 83 291 169 291 77 0 163
-119 201 -277 6 -29 17 -53 24 -53 6 0 26 12 44 28 32 26 33 29 36 117 2 58
10 108 22 140 l20 50 289 21 c160 12 325 25 368 28 l77 6 0 -44 c0 -66 14 -96
45 -96 34 0 60 57 51 112 -6 36 -5 38 21 38 l28 0 0 -148z m13794 -9 c0 -51
-3 -93 -8 -93 -5 0 -19 21 -31 46 -27 54 -24 126 6 171 l18 28 7 -30 c4 -16 7
-72 8 -122z m-15538 47 c-6 -17 -19 28 -19 70 0 18 3 15 13 -15 6 -22 10 -47
6 -55z m1776 48 c-3 -8 -6 -5 -6 6 -1 11 2 17 5 13 3 -3 4 -12 1 -19z m15413
10 c33 3 123 -10 113 -16 -6 -4 -25 -35 -42 -69 -17 -35 -37 -63 -44 -63 -8 0
-7 4 3 10 8 5 10 10 5 10 -6 0 -16 -5 -23 -12 -9 -9 -12 -9 -12 1 0 7 -4 10
-9 7 -14 -9 -38 27 -45 69 -4 22 -9 48 -12 58 -5 15 -1 17 23 11 15 -4 34 -7
43 -6z m-15423 -70 c-3 -7 -5 -2 -5 12 0 14 2 19 5 13 2 -7 2 -19 0 -25z
m-1742 -37 c2 -18 0 -29 -6 -26 -5 4 -9 20 -9 37 0 39 9 32 15 -11z m1803 -94
c57 -102 62 -121 33 -137 -27 -14 -65 33 -79 97 -17 76 -23 133 -15 133 5 0
32 -42 61 -93z m6497 -57 c644 -22 1670 -58 2280 -79 1194 -41 1140 -37 1191
-93 40 -43 44 -80 36 -303 -9 -232 -17 -266 -76 -308 -23 -16 -48 -23 -101
-25 -38 -2 -601 15 -1250 37 -649 23 -1696 59 -2327 81 -902 31 -1153 42
-1180 53 -70 29 -101 99 -96 212 l3 70 56 1 c92 3 128 38 94 90 -15 24 -105
74 -132 74 -7 0 -13 11 -13 24 0 23 4 25 68 31 166 15 248 27 272 38 47 23 35
82 -23 117 l-32 20 30 0 c17 0 557 -18 1200 -40z m3455 -36 c88 -36 282 -134
381 -193 83 -49 166 -125 245 -225 21 -28 57 -66 79 -85 84 -74 169 -168 186
-206 22 -52 62 -215 93 -385 17 -87 46 -195 85 -305 l59 -171 -59 -38 c-73
-47 -198 -92 -302 -107 -73 -11 -79 -10 -100 8 -12 11 -50 35 -84 53 -109 57
-227 179 -302 312 -25 45 -60 80 -159 162 -70 58 -161 128 -202 157 -124 84
-161 130 -140 169 31 57 116 53 271 -14 14 -6 17 2 21 52 5 69 62 192 115 249
29 32 36 34 82 32 28 -2 54 0 57 4 4 4 -10 27 -31 53 -36 44 -40 46 -77 40
-22 -4 -62 -4 -89 0 l-49 7 0 83 0 84 30 0 c37 0 40 22 5 38 -15 7 -33 30 -45
56 -20 48 -71 95 -122 112 -36 12 -49 44 -28 70 15 17 5 19 80 -12z m-11680
-18 c0 -3 -4 -8 -10 -11 -5 -3 -10 -1 -10 4 0 6 5 11 10 11 6 0 10 -2 10 -4z
m16 -51 c-3 -8 -1 -15 4 -15 11 0 43 -70 35 -78 -5 -5 -25 42 -25 59 0 6 -4 8
-9 5 -5 -4 -11 0 -14 6 -4 14 2 38 10 38 3 0 3 -7 -1 -15z m17264 -385 c58
-354 125 -582 215 -736 18 -30 18 -32 -4 -76 -50 -104 -167 -183 -341 -230
-76 -20 -108 -23 -295 -23 -196 0 -215 2 -285 24 -98 33 -177 107 -203 191
-29 99 -32 94 54 101 270 22 578 243 723 519 22 42 47 119 72 220 21 85 39
150 40 145 2 -6 13 -66 24 -135z m418 -729 c20 -1 6 -72 -28 -146 -79 -175
-247 -290 -514 -353 -101 -24 -129 -26 -316 -26 -177 0 -215 3 -281 22 -221
60 -348 186 -393 389 -9 40 -16 77 -16 82 0 7 29 11 75 11 73 0 75 -1 81 -27
17 -76 26 -102 54 -150 33 -57 94 -111 155 -135 99 -41 118 -43 335 -43 192 0
224 3 305 24 125 32 224 80 286 137 49 47 99 128 113 186 5 24 11 27 54 30 26
2 54 2 62 1 8 -1 21 -2 28 -2z m652 -7 c269 -31 512 -90 643 -156 76 -38 142
-104 151 -150 6 -31 14 -38 94 -79 105 -53 240 -141 304 -198 60 -54 105 -122
125 -191 27 -96 107 -212 479 -695 640 -831 944 -1280 1146 -1690 177 -361
215 -596 122 -762 -157 -281 -674 -819 -1357 -1413 -98 -85 -185 -159 -193
-163 -11 -6 -19 3 -33 35 -10 24 -66 151 -125 282 l-105 240 123 250 c281 574
523 967 653 1061 23 16 42 34 42 38 1 7 -58 84 -234 303 -38 48 -88 111 -110
140 -50 65 -285 365 -300 380 -5 7 -28 35 -50 64 -22 28 -80 102 -129 163 -49
62 -113 144 -142 182 -60 78 -63 82 -224 285 -63 80 -126 160 -138 178 -13 17
-30 32 -38 32 -24 0 -15 -33 22 -75 19 -22 50 -62 69 -90 l34 -50 16 -565 c20
-733 55 -2162 55 -2265 0 -79 -1 -80 -33 -102 -17 -12 -54 -43 -81 -68 -27
-25 -49 -44 -50 -43 -81 192 -263 383 -461 486 -251 131 -455 200 -755 256
-160 31 -443 72 -555 82 -68 6 -85 11 -113 35 -18 16 -50 38 -72 49 -22 11
-40 26 -41 33 0 6 -8 87 -18 180 l-17 167 41 20 c23 11 51 30 63 43 21 23 151
247 192 331 43 89 40 201 -7 257 l-26 31 22 86 c40 158 44 338 10 466 -27 101
-93 286 -125 350 -169 336 -496 569 -889 634 -55 9 -102 17 -104 19 -2 1 17
25 42 52 56 60 78 121 56 159 -26 48 -75 67 -164 66 -116 -2 -235 -51 -392
-161 -34 -23 -64 -43 -67 -43 -3 0 7 26 22 58 30 67 36 139 11 155 -28 18 -73
-10 -165 -102 -212 -212 -355 -485 -354 -676 1 -79 15 -128 56 -186 l28 -41
-50 -150 -49 -151 -12 69 c-6 38 -24 154 -39 257 l-28 189 42 84 c46 92 49
104 28 104 -8 0 -41 -52 -76 -117 -158 -303 -392 -683 -515 -839 -284 -356
-525 -551 -740 -599 -117 -26 -170 -11 -280 79 -73 61 -129 125 -216 251 -276
398 -653 1295 -995 2370 -31 99 -59 185 -61 191 -3 7 25 13 79 17 163 13 337
78 437 164 23 19 44 34 46 32 2 -2 31 -69 65 -149 107 -251 281 -579 455 -861
32 -52 107 -175 165 -274 193 -325 317 -515 334 -515 6 0 22 24 35 53 72 158
220 455 308 617 181 333 319 540 459 690 46 49 84 95 84 102 0 28 90 209 144
294 77 117 191 229 276 271 97 47 363 103 560 117 101 8 338 11 343 6 2 -3 9
-36 16 -75 22 -123 65 -210 145 -290 127 -128 260 -174 526 -182 502 -16 850
159 946 475 7 26 14 59 14 75 l0 27 233 0 c146 0 282 -6 367 -16z m-15927
-528 c-4 -5 1 -7 11 -3 9 4 15 3 12 -1 -2 -4 8 -13 24 -20 15 -7 31 -20 34
-29 6 -14 4 -14 -16 0 -13 9 -40 27 -60 39 -21 12 -38 28 -38 35 0 11 4 11 19
1 11 -7 17 -16 14 -22z m8793 -12 c174 -50 209 -69 409 -220 137 -103 215
-171 280 -241 50 -54 109 -119 133 -145 l43 -46 125 -469 c108 -404 214 -827
214 -854 0 -11 -81 -34 -188 -53 -94 -18 -382 -49 -388 -43 -3 2 -7 92 -11
199 l-6 194 -55 29 c-103 54 -232 199 -286 320 -10 23 -39 57 -68 80 -28 22
-92 81 -142 130 -50 50 -113 103 -141 119 -114 66 -158 100 -172 133 -7 19
-11 38 -8 43 4 6 28 10 55 10 27 0 61 5 75 10 21 8 39 5 88 -16 108 -45 106
-46 100 24 -5 53 -2 66 27 123 17 34 45 82 61 105 16 23 29 49 29 56 0 8 -40
54 -90 102 l-90 89 0 54 0 55 43 -25 c23 -14 62 -36 87 -49 56 -30 285 -265
338 -346 20 -31 48 -79 62 -105 14 -26 31 -47 37 -47 17 0 17 3 -12 61 -49 96
-100 165 -190 259 -50 52 -106 112 -125 132 -18 21 -76 61 -129 90 -53 30
-116 73 -141 99 -25 26 -64 56 -87 68 -43 21 -62 54 -49 86 8 23 71 19 172
-11z m-8658 -79 c15 -14 23 -25 19 -25 -4 0 1 -8 11 -18 9 -11 20 -17 23 -16
9 5 33 -25 26 -32 -2 -3 -21 9 -41 27 -20 17 -35 34 -32 36 3 3 -7 16 -22 29
-15 13 -23 24 -19 24 4 0 20 -11 35 -25z m8542 -32 c20 -12 46 -40 58 -61 21
-38 22 -51 22 -269 0 -223 -1 -231 -23 -264 -12 -18 -38 -44 -56 -56 l-34 -23
-2403 2 -2403 3 -28 21 c-15 11 -38 36 -50 54 -22 32 -23 41 -23 262 0 192 3
236 16 264 20 42 59 71 110 83 23 5 1009 8 2409 8 l2370 -2 35 -22z m-6550 -7
c0 -3 -4 -8 -10 -11 -5 -3 -10 -1 -10 4 0 6 5 11 10 11 6 0 10 -2 10 -4z m40
-16 c12 -8 9 -10 -13 -10 -16 0 -26 4 -22 10 8 12 16 12 35 0z m55 -30 c7 -12
-2 -12 -30 0 -19 8 -19 9 2 9 12 1 25 -3 28 -9z m39 -30 c6 0 54 -40 105 -90
52 -49 90 -90 85 -90 -4 0 2 -7 14 -16 26 -18 48 -54 32 -54 -5 0 -10 7 -10
16 0 9 -5 12 -12 8 -7 -4 -8 -3 -4 4 4 7 3 12 -3 12 -6 0 -21 16 -34 35 -13
19 -27 33 -30 30 -4 -3 -5 -2 -3 1 7 9 -76 84 -137 126 -20 13 -34 28 -30 32
4 4 9 2 11 -3 2 -6 9 -11 16 -11z m-2019 0 c-3 -5 -2 -10 3 -10 17 0 63 -68
51 -75 -6 -4 -13 2 -16 14 -3 12 -9 21 -13 21 -5 0 -18 14 -30 30 -18 26 -19
30 -5 30 9 0 13 -4 10 -10z m468 -110 c-7 -28 -13 -25 -13 6 0 14 4 23 9 20 5
-3 7 -15 4 -26z m-358 -38 c-2 -3 7 -19 20 -37 27 -35 30 -45 14 -45 -5 0 -7
5 -4 10 3 6 2 10 -2 10 -10 0 -45 57 -41 65 2 4 -5 11 -14 16 -10 6 -18 18
-18 27 1 13 7 9 25 -13 13 -16 22 -31 20 -33z m376 -22 c5 0 9 -10 9 -22 0
-28 -17 -12 -23 22 -2 14 -2 19 0 13 3 -7 9 -13 14 -13z m22 -133 c9 -117 6
-307 -5 -272 -4 17 -6 84 -4 149 2 66 1 114 -3 107 -5 -8 -8 -2 -7 16 0 15 -3
40 -7 55 -6 21 -4 26 7 22 9 -4 16 -29 19 -77z m-319 16 c10 -21 12 -34 6 -38
-6 -4 -9 -3 -8 2 4 14 -13 53 -23 53 -6 0 -7 5 -4 11 8 12 8 13 29 -28z m19
-60 c-5 -12 -3 -14 7 -8 10 6 12 4 7 -8 -3 -9 -2 -19 4 -22 5 -4 6 -11 3 -17
-4 -6 -13 4 -20 22 -8 18 -11 36 -8 41 9 15 14 10 7 -8z m60 -144 c10 -38 11
-61 5 -70 -8 -11 -9 -10 -4 3 3 10 1 20 -3 22 -9 6 -25 65 -22 80 1 5 -3 12
-10 16 -6 4 -8 13 -4 20 10 17 19 0 38 -71z m32 -137 c-8 -8 -26 39 -19 50 5
8 11 1 16 -17 4 -16 6 -31 3 -33z m7 -79 c-10 -26 -10 -24 -11 22 0 42 2 46
11 28 7 -15 7 -30 0 -50z m194 -2 c0 -33 -4 -57 -8 -55 -11 7 -5 114 7 114 1
0 1 -27 1 -59z m-176 -142 c-8 -19 -9 -15 -4 21 4 35 3 42 -6 30 -9 -12 -10
-6 -6 25 3 22 6 47 7 55 1 8 5 -13 10 -46 6 -40 5 -70 -1 -85z m2223 -2096
c19 -42 19 -44 -4 -139 -19 -79 -28 -99 -49 -112 -14 -9 -35 -24 -47 -35 -21
-19 -21 -19 -47 25 -59 101 -56 29 -56 1259 l0 1129 39 6 c52 8 98 37 119 74
16 28 17 -31 22 -1068 5 -1039 6 -1099 23 -1139z m10869 2185 c-5 -5 -19 -11
-32 -13 -13 -2 -26 -8 -29 -13 -8 -12 -54 -37 -63 -34 -5 1 -8 -3 -8 -9 0 -5
-5 -7 -12 -3 -14 9 18 34 43 34 10 0 19 3 21 8 6 13 50 38 69 38 10 0 15 -4
11 -8z m-12938 -67 c-15 -15 -16 -14 -10 2 3 10 6 28 7 40 0 21 1 21 10 -2 7
-19 6 -28 -7 -40z m12411 19 c3 -5 1 -10 -4 -10 -6 0 -11 5 -11 10 0 6 2 10 4
10 3 0 8 -4 11 -10z m-10575 -1143 c0 -1241 -3 -1176 64 -1275 l33 -50 -29
-67 c-94 -222 -153 -673 -184 -1417 l-6 -158 -39 6 c-28 5 -46 2 -65 -11 -23
-15 -25 -22 -22 -61 2 -24 0 -44 -3 -44 -3 0 -40 9 -82 20 -142 36 -490 80
-759 96 l-117 7 -89 121 c-81 110 -152 229 -152 256 0 6 24 61 54 123 62 126
101 237 146 412 44 167 48 298 21 613 -16 183 -20 278 -15 382 l7 138 41 -30
c38 -28 46 -30 112 -26 110 7 174 51 204 142 27 84 -1 263 -63 407 l-16 36 72
-25 c90 -30 204 -36 220 -10 19 30 -21 93 -122 194 -195 193 -435 340 -626
385 -107 25 -290 23 -363 -3 -40 -15 -48 -15 -90 -1 -26 9 -50 18 -54 22 -5 5
-25 432 -32 686 l-1 40 85 7 c575 50 1802 188 1819 204 2 2 15 4 28 4 l23 0 0
-1123z m10540 1103 c-8 -6 -12 -10 -7 -10 4 0 0 -11 -9 -25 -9 -14 -20 -22
-26 -19 -5 3 -1 12 9 20 10 7 14 14 9 14 -5 0 -1 9 9 20 10 11 21 18 24 15 3
-4 -1 -10 -9 -15z m389 -11 c-13 -9 -27 -16 -30 -13 -4 2 -9 1 -11 -3 -1 -5
-25 -26 -53 -48 -65 -52 -140 -145 -116 -145 5 0 11 -10 14 -22 l6 -21 -21 21
c-20 19 -20 22 -5 54 9 18 25 40 35 49 11 10 24 23 28 31 5 8 27 27 49 44 22
16 49 37 59 46 10 10 23 15 28 12 4 -3 11 2 14 10 3 9 11 13 16 10 6 -4 1 -14
-13 -25z m-12909 -29 c0 -5 -5 -10 -11 -10 -5 0 -7 5 -4 10 3 6 8 10 11 10 2
0 4 -4 4 -10z m-4339 -27 c1 -10 3 -34 5 -53 2 -19 5 -61 8 -92 2 -31 7 -61
10 -67 4 -5 6 -27 5 -48 -1 -21 6 -76 16 -121 9 -46 14 -86 11 -89 -3 -4 -1
-12 5 -19 7 -9 7 -18 0 -31 -9 -16 -11 -14 -13 12 -1 17 -1 40 0 53 0 12 -2
22 -6 22 -4 0 -7 10 -8 23 0 12 -4 36 -8 54 -11 57 -18 137 -17 193 1 35 -2
50 -7 42 -7 -10 -9 -5 -9 15 1 15 -3 49 -7 76 -6 33 -5 47 3 47 6 0 12 -8 12
-17z m16791 -47 c-30 -49 -36 -51 -26 -12 3 15 11 23 17 19 6 -4 8 0 4 10 -4
10 -2 16 6 14 7 -1 11 4 9 11 -1 8 2 11 7 7 6 -3 -2 -24 -17 -49z m-51 -89
c-6 -15 -15 -27 -19 -27 -5 0 -2 15 7 34 18 38 27 33 12 -7z m1089 -55 c30
-11 56 -26 58 -34 3 -11 2 -11 -6 0 -5 8 -13 13 -18 12 -10 -1 -101 19 -124
27 -33 12 -129 12 -224 -1 -56 -7 -121 -14 -146 -15 -25 -1 -49 -6 -54 -12
-13 -12 -47 -11 -66 2 -11 8 -8 9 13 4 16 -3 34 -2 40 3 14 11 121 27 158 24
14 -2 36 1 50 6 44 17 258 6 319 -16z m-580 -38 c0 -2 -7 -4 -15 -4 -8 0 -15
4 -15 10 0 5 7 7 15 4 8 -4 15 -8 15 -10z m-9400 -63 c14 -28 14 -29 -27 -50
-48 -24 -78 -56 -97 -103 -9 -20 -31 -45 -51 -58 -44 -27 -44 -40 0 -40 l35 0
0 -79 c0 -77 -1 -79 -27 -86 -14 -3 -56 -5 -91 -4 -65 2 -66 2 -99 -37 -18
-21 -33 -43 -33 -48 0 -5 17 -6 37 -3 58 10 96 -15 141 -91 48 -81 76 -163 68
-197 -8 -31 5 -32 74 -5 32 13 74 20 115 20 58 0 66 -3 81 -25 15 -23 15 -27
-3 -57 -10 -17 -56 -58 -103 -90 -47 -33 -140 -104 -207 -160 -97 -80 -129
-113 -159 -164 -76 -130 -181 -233 -303 -299 -52 -28 -57 -34 -71 -82 -13 -47
-18 -53 -41 -53 -48 0 -198 49 -290 95 -75 38 -89 49 -84 64 34 108 111 414
131 521 33 175 70 324 94 369 10 20 60 77 111 126 52 50 111 113 133 140 105
136 181 192 420 312 107 54 213 102 228 103 4 0 12 -9 18 -19z m8934 -23 c-3
-5 3 -8 13 -9 39 -2 63 -6 70 -12 3 -4 -9 -5 -28 -3 -19 2 -39 4 -45 5 -12 1
-54 35 -54 44 0 3 11 0 24 -6 13 -7 22 -15 20 -19z m486 22 c0 -3 -41 -7 -92
-8 -51 -1 -106 -6 -123 -12 -16 -5 -43 -12 -60 -14 -16 -2 -46 -7 -66 -11 -25
-5 -39 -3 -44 6 -6 8 -3 11 7 6 9 -3 65 4 124 16 102 21 254 31 254 17z m783
-3 c4 3 7 1 7 -5 0 -14 -2 -14 -24 -6 -9 3 -16 11 -16 16 0 7 5 6 13 -1 8 -6
17 -8 20 -4z m56 -43 c12 -15 21 -23 21 -19 0 11 38 -24 62 -57 15 -22 16 -27
4 -22 -9 3 -16 13 -16 21 0 8 -5 11 -10 8 -6 -4 -9 -1 -8 6 2 7 -4 13 -12 14
-9 0 -30 14 -47 32 -17 17 -34 29 -39 25 -4 -4 -4 -1 0 6 11 18 22 15 45 -14z
m-5422 -39 c75 -45 78 -57 78 -321 l0 -230 -27 -41 c-53 -80 190 -73 -2482
-73 -2655 0 -2432 -6 -2483 71 l-28 43 0 230 c0 262 3 276 80 322 l40 24 2389
0 2389 0 44 -25z m4986 -70 c178 -27 299 -82 332 -152 26 -53 14 -103 -54
-235 -51 -98 -61 -125 -61 -167 0 -44 5 -56 35 -90 45 -50 79 -126 104 -231
21 -91 41 -248 41 -328 0 -40 5 -53 28 -74 63 -59 117 -57 143 5 20 47 146
171 206 201 98 49 185 29 228 -55 21 -39 19 -119 -4 -177 -22 -56 -132 -258
-172 -319 -40 -58 -103 -87 -177 -81 -31 3 -65 9 -74 13 -16 6 -18 1 -18 -41
-2 -190 -204 -398 -543 -559 -269 -128 -656 -220 -841 -201 -81 8 -174 54
-224 111 -119 135 -182 357 -204 718 -13 212 -3 370 31 540 12 53 25 143 31
200 5 59 24 154 45 227 57 200 175 548 190 564 19 19 171 73 275 98 201 47
493 62 683 33z m581 -56 c15 -28 26 -56 26 -62 0 -7 -12 12 -26 41 -13 28 -29
52 -34 52 -6 0 -10 5 -10 10 0 25 21 6 44 -41z m2459 -154 c55 -71 153 -195
216 -275 317 -400 369 -466 593 -752 l194 -248 -71 -72 c-145 -150 -365 -519
-621 -1045 -87 -178 -113 -240 -108 -259 5 -19 -2 -33 -33 -67 l-40 -43 -11
41 c-17 65 -46 95 -92 95 -20 0 -54 -7 -75 -16 -20 -8 -38 -14 -40 -12 -2 2
-10 314 -19 693 -19 787 -43 1715 -51 1980 l-6 180 31 -35 c17 -19 77 -93 133
-165z m-4227 -131 l38 -252 -22 -73 c-23 -81 -46 -200 -62 -324 -5 -44 -19
-129 -30 -190 -22 -127 -28 -458 -10 -636 13 -128 50 -297 83 -378 l25 -61
-42 -10 c-22 -6 -63 -18 -89 -27 -46 -14 -52 -14 -140 11 -182 51 -385 53
-559 5 -84 -23 -158 -33 -423 -54 -201 -17 -584 -63 -772 -93 l-113 -18 0 28
c0 47 -39 78 -99 78 l-49 0 -7 135 c-4 74 -7 138 -6 142 0 5 54 10 118 13 101
4 126 9 176 32 81 38 168 124 203 201 l29 62 3 298 c2 163 6 297 10 296 4 0
37 -36 74 -78 113 -132 219 -188 336 -176 221 21 475 204 741 535 151 187 335
462 466 699 53 95 70 119 75 105 4 -11 25 -132 46 -270z m-16402 177 c-2 -2
-4 1 -4 8 0 7 -4 10 -8 7 -4 -2 -7 8 -6 22 3 40 5 40 14 2 5 -19 7 -37 4 -39z
m18217 6 c-8 -8 -11 -3 -11 19 1 25 2 27 11 11 8 -14 8 -22 0 -30z m-18205
-55 c-4 -3 -11 0 -16 8 -15 24 -11 33 6 15 9 -9 13 -19 10 -23z m18227 11 c-4
-10 -2 -14 4 -10 6 4 10 -7 10 -26 l0 -32 -14 33 c-7 18 -11 37 -8 43 10 15
15 10 8 -8z m-18208 -90 c4 -27 10 -52 14 -58 15 -19 19 -42 11 -54 -5 -8 -7
-3 -7 14 0 15 -5 30 -11 34 -5 3 -13 22 -16 42 -3 20 -8 43 -12 52 -3 10 -2
17 4 17 5 0 13 -21 17 -47z m18249 -8 c4 -14 2 -33 -4 -43 -9 -14 -10 -14 -5
6 4 12 3 22 -2 22 -5 0 -9 9 -10 20 -2 29 14 25 21 -5z m13 -105 c9 -22 11
-84 3 -68 -4 7 -10 36 -13 63 -4 28 -4 43 -1 35 3 -8 8 -22 11 -30z m-18222
-21 c-5 -16 -4 -19 6 -14 9 6 11 4 6 -7 -3 -9 0 -21 6 -27 7 -7 7 -11 1 -11
-15 0 -35 47 -28 65 9 23 16 18 9 -6z m18222 -101 c-3 -7 -5 -2 -5 12 0 14 2
19 5 13 2 -7 2 -19 0 -25z m22 -100 c0 -91 -3 -127 -10 -113 -7 16 -9 14 -6
-12 2 -18 0 -33 -5 -33 -12 0 -10 58 2 65 6 4 10 53 10 116 0 60 2 109 5 109
3 0 5 -60 4 -132z m-14040 -78 c18 0 40 -5 47 -11 8 -6 27 -8 46 -4 24 5 29 3
18 -4 -16 -11 -148 -4 -165 9 -5 4 -59 7 -118 5 -59 -1 -110 2 -112 6 -3 4 52
5 122 3 71 -2 143 -4 162 -4z m-534 -21 c15 -7 11 -7 -14 -3 -18 3 -36 2 -40
-4 -6 -10 -68 -24 -113 -24 -15 -1 -25 -5 -22 -9 3 -5 -2 -6 -11 -2 -25 9 -1
20 60 29 27 3 59 10 70 15 26 10 45 10 70 -2z m751 -21 c-10 -6 -27 -6 -44 0
-24 8 -23 9 17 9 32 0 39 -2 27 -9z m39 -8 c-3 -5 -14 -10 -23 -9 -14 0 -13 2
3 9 27 11 27 11 20 0z m103 -21 c37 -12 72 -26 78 -31 7 -5 22 -11 34 -13 13
-2 25 -7 29 -10 3 -3 -10 -3 -29 0 -19 3 -37 11 -41 17 -4 6 -12 8 -17 4 -6
-4 -19 -2 -29 3 -30 16 -57 24 -72 22 -7 -1 -10 2 -6 9 5 7 -2 9 -22 5 -21 -5
-24 -4 -13 4 19 13 10 15 88 -10z m-1113 1 c3 -5 2 -10 -4 -10 -5 0 -13 5 -16
10 -3 6 -2 10 4 10 5 0 13 -4 16 -10z m-27 -15 c-2 -1 -21 -5 -43 -8 l-40 -6
35 13 c29 11 61 12 48 1z m-88 -37 c-14 -6 -31 -12 -37 -14 -7 -1 -20 -9 -29
-18 -8 -9 -21 -16 -28 -16 -7 0 -21 -9 -31 -20 -10 -11 -23 -20 -28 -20 -6 0
-2 9 8 20 21 24 131 80 154 79 10 0 6 -5 -9 -11z m1410 -29 c0 -4 -7 -6 -15
-3 -8 4 -15 10 -15 15 0 4 7 6 15 3 8 -4 15 -10 15 -15z m9685 -46 c21 -36 60
-99 87 -140 l48 -74 0 -257 c0 -141 -5 -286 -11 -322 -27 -169 -151 -292 -320
-319 -75 -13 -176 -14 -182 -3 -3 4 -8 46 -12 93 l-7 85 43 13 c146 44 250
148 288 286 6 25 11 170 11 373 1 182 5 332 9 332 4 0 24 -30 46 -67z m3800
28 c-3 -12 -11 -18 -17 -15 -6 4 -5 10 3 15 8 5 10 9 6 9 -5 0 -5 5 -2 11 11
16 18 3 10 -20z m-13427 -4 c20 -12 49 -28 65 -35 15 -6 27 -16 27 -22 0 -6 4
-9 8 -6 5 3 24 -7 42 -23 23 -19 28 -28 17 -28 -9 0 -14 3 -12 6 2 4 -14 15
-36 25 -21 10 -36 24 -32 29 4 6 0 8 -11 4 -9 -4 -15 -3 -13 1 3 4 -19 18 -49
32 -30 14 -54 28 -54 32 0 12 8 10 48 -15z m8326 -13 c43 -44 27 -102 -33
-117 -76 -19 -118 68 -59 123 30 27 60 25 92 -6z m-9960 -33 c3 -4 -3 -16 -13
-25 -15 -14 -21 -15 -27 -4 -4 7 -4 10 0 6 10 -8 36 14 29 25 -2 4 -2 7 1 7 3
0 7 -4 10 -9z m-44 -50 c0 -5 -6 -14 -14 -20 -11 -9 -16 -9 -22 0 -4 8 -3 9 4
5 7 -4 12 -1 12 8 0 9 5 16 10 16 6 0 10 -4 10 -9z m673 -13 c-2 -5 24 -8 59
-9 37 0 55 -3 44 -8 -10 -4 -59 -2 -110 5 -50 6 -92 8 -94 3 -2 -4 -10 -5 -18
-2 -9 3 -26 0 -40 -7 -20 -11 -27 -11 -37 -1 -10 11 -7 12 12 6 15 -5 21 -4
17 3 -4 7 8 12 31 14 68 5 141 3 136 -4z m1222 -57 c-6 -6 -35 27 -35 39 0 7
9 2 19 -11 11 -13 18 -26 16 -28z m-1929 27 c4 -6 3 -8 -3 -5 -5 3 -17 -9 -26
-28 -9 -19 -21 -35 -27 -35 -5 0 -9 -3 -8 -7 3 -13 -24 -63 -34 -63 -4 0 -8
-9 -8 -20 0 -11 -5 -20 -11 -20 -6 0 -9 -7 -5 -15 3 -8 1 -15 -5 -15 -6 0 -7
-5 -3 -12 5 -7 3 -8 -6 -3 -10 6 -12 4 -7 -7 3 -9 -1 -28 -9 -43 -8 -15 -14
-36 -14 -47 0 -10 -4 -17 -9 -14 -10 7 -3 44 12 64 5 7 10 20 11 30 2 23 52
129 66 137 5 3 8 10 5 14 -2 5 6 20 20 35 14 15 29 35 35 46 12 23 16 24 26 8z
m872 -8 c3 -9 -1 -11 -12 -7 -10 4 -25 7 -34 8 -14 0 -13 2 3 9 25 11 37 8 43
-10z m-378 6 c0 -2 -11 -6 -25 -8 -14 -3 -25 -1 -25 3 0 5 11 9 25 9 14 0 25
-2 25 -4z m446 -32 c22 -9 47 -23 57 -32 10 -9 25 -17 33 -18 8 -1 29 -14 47
-28 17 -15 46 -37 62 -51 17 -13 27 -26 23 -30 -4 -4 -18 5 -32 20 -15 16 -26
25 -26 21 0 -4 -10 2 -22 14 -12 11 -26 20 -30 20 -5 0 -6 5 -3 10 5 9 -9 14
-18 8 -2 -2 -11 3 -20 10 -9 8 -42 27 -74 43 -62 31 -60 39 3 13z m-653 -82
c-9 -9 -19 -15 -21 -14 -3 2 -9 -2 -14 -10 -8 -10 -9 -10 -5 2 2 8 9 14 15 13
6 -2 14 6 17 17 4 11 11 18 16 15 5 -4 2 -14 -8 -23z m-60 -77 c-9 -19 -20
-32 -25 -29 -7 5 27 64 38 64 2 0 -4 -16 -13 -35z m-3055 -402 c34 -236 73
-518 87 -628 29 -226 88 -901 83 -949 l-3 -31 -29 50 c-68 117 -341 519 -422
620 -107 133 -223 252 -285 291 -29 19 -44 35 -41 44 13 38 162 361 236 509
115 230 286 521 305 521 4 0 35 -192 69 -427z m4908 369 c8 -20 12 -40 10 -46
-2 -6 -5 -2 -5 9 -1 17 -3 17 -11 5 -8 -12 -10 -9 -10 12 0 15 -4 29 -9 32 -5
3 -11 15 -14 26 -9 34 21 4 39 -38z m-773 -114 c-4 -9 -113 104 -126 131 -5 9
22 -15 60 -54 38 -38 68 -73 66 -77z m8718 131 c11 -6 18 -17 15 -24 -3 -9 0
-12 10 -8 10 4 14 -3 14 -23 -1 -33 -15 -56 -48 -73 -43 -23 -102 20 -102 75
0 22 46 64 70 64 12 0 30 -5 41 -11z m-8554 -23 c107 -36 197 -84 268 -144
l65 -54 0 -220 c0 -125 7 -292 16 -387 23 -242 16 -422 -23 -572 -64 -242
-163 -474 -238 -556 -31 -35 -50 -47 -85 -53 -120 -22 -409 50 -694 173 -247
108 -330 172 -405 316 -40 78 -50 118 -32 137 17 17 100 222 132 326 30 96 35
106 84 150 87 78 168 252 230 492 22 86 39 132 50 139 28 15 93 -1 199 -49 54
-25 114 -48 133 -51 18 -3 33 -8 33 -12 0 -3 -22 -14 -49 -24 -50 -17 -121
-83 -121 -112 0 -22 4 -20 57 33 29 29 64 52 89 60 51 15 147 16 214 1 28 -6
54 -8 58 -5 12 13 -15 25 -83 39 -60 12 -66 15 -42 21 40 10 99 49 130 86 48
56 34 141 -38 241 -19 27 -31 49 -27 49 5 0 40 -11 79 -24z m-1273 -34 c-4
-12 -11 -22 -16 -22 -5 0 -7 -9 -3 -19 3 -11 1 -22 -5 -26 -7 -4 -9 -20 -6
-38 6 -30 5 -30 -4 -7 -12 28 5 120 22 120 6 0 7 8 3 18 -4 11 -3 14 4 7 6 -6
8 -20 5 -33z m1891 -31 c3 -5 1 -12 -5 -16 -5 -3 -10 1 -10 9 0 18 6 21 15 7z
m-2276 -88 c-6 -7 -7 -18 -3 -25 5 -9 4 -10 -4 -3 -6 6 -8 23 -5 38 4 20 8 25
14 16 4 -7 3 -19 -2 -26z m1516 27 c3 -5 -1 -10 -10 -10 -9 0 -13 5 -10 10 3
6 8 10 10 10 2 0 7 -4 10 -10z m-1167 -76 c-3 -14 -5 -12 -10 9 -3 19 -2 25 4
19 6 -6 8 -18 6 -28z m3365 -28 c101 -55 211 -92 297 -102 36 -4 68 -12 72
-18 4 -6 8 -91 8 -188 0 -153 2 -178 15 -178 26 0 100 -82 113 -126 17 -59 15
-203 -8 -494 -48 -600 -125 -1215 -196 -1564 -13 -65 -24 -120 -24 -122 0 -1
-240 -4 -532 -6 -528 -3 -533 -3 -574 -25 -23 -12 -51 -37 -62 -55 -18 -30
-55 -144 -116 -358 l-22 -75 -164 -3 -164 -3 23 24 c48 52 -1 106 -159 174
-83 35 -91 41 -100 73 -5 19 -28 99 -50 178 -61 218 -179 491 -273 632 -16 25
-53 72 -81 104 l-50 59 159 -7 c549 -23 1017 -80 1173 -143 35 -14 66 -22 69
-19 4 4 -1 22 -10 41 -22 46 -22 91 -1 99 9 4 38 3 65 0 l49 -7 0 54 c0 107
20 498 36 684 45 562 122 889 228 977 12 10 28 18 36 18 12 0 28 47 65 193 53
210 59 227 80 227 9 0 52 -20 98 -44z m-3723 20 c0 -8 -5 -18 -10 -21 -6 -3
-8 -18 -5 -33 5 -23 4 -24 -4 -6 -10 23 -3 74 10 74 5 0 9 -6 9 -14z m360
-189 c-10 -22 -10 -22 -9 3 1 14 0 27 -1 30 -6 12 -6 126 -1 135 10 17 21
-144 11 -168z m-391 63 c-4 -3 -10 -39 -13 -80 -3 -41 -10 -93 -15 -114 -6
-22 -7 -45 -4 -50 3 -6 0 -6 -7 1 -10 9 -10 21 -2 54 6 23 8 48 5 55 -3 8 -1
14 4 14 5 0 10 17 10 37 1 20 5 61 9 92 6 49 8 52 14 26 3 -16 3 -32 -1 -35z
m395 -126 c-4 -24 -3 -35 3 -31 14 9 16 -212 2 -229 -6 -8 -8 -21 -5 -30 8
-20 -11 -94 -24 -94 -13 0 -13 17 1 25 6 4 8 13 5 20 -2 7 2 46 11 86 13 61
13 90 4 166 -6 50 -8 99 -5 107 11 28 15 17 8 -20z m14975 -273 c15 -156 22
-278 18 -327 -10 -140 -79 -290 -203 -439 -72 -87 -134 -182 -234 -360 -129
-229 -212 -335 -291 -370 -39 -18 -41 -18 -76 0 -86 47 -261 292 -390 548 -33
66 -77 178 -71 182 2 0 39 11 83 24 246 69 562 261 783 474 166 161 269 321
295 456 11 56 14 61 37 61 l25 0 24 -249z m-15409 102 c0 -13 -4 -23 -10 -23
-5 0 -10 -19 -10 -42 -1 -33 -3 -39 -10 -26 -11 19 -2 78 12 78 5 0 7 14 3 33
-5 24 -4 28 4 17 6 -8 11 -25 11 -37z m10022 -35 c2 -46 2 -89 0 -96 -3 -10
-578 -12 -2858 -12 l-2853 0 -38 35 c-21 19 -46 38 -55 41 -14 4 -18 17 -18
60 l0 54 2909 0 2909 0 4 -82z m-10058 -100 c-4 -13 -11 -26 -17 -29 -5 -4 -7
-11 -4 -16 3 -4 -1 -19 -9 -33 -19 -35 -18 -5 3 53 17 46 41 68 27 25z m10060
-40 c2 -7 11 -139 20 -293 44 -759 126 -1166 256 -1278 205 -176 967 -219
2215 -127 149 11 339 27 423 36 85 9 155 14 157 12 8 -8 56 -264 69 -373 42
-327 60 -928 53 -1731 -4 -352 -10 -650 -15 -663 -8 -23 -13 -6 -442 1471 -93
323 -175 600 -181 615 -6 15 -20 39 -32 51 -51 55 48 52 -1800 52 -1686 0
-1711 0 -1751 -20 -49 -24 -86 -74 -93 -127 -6 -45 8 -97 192 -723 75 -256
165 -564 200 -685 35 -121 89 -308 120 -415 31 -107 88 -302 126 -433 38 -130
69 -240 69 -242 0 -3 -249 -5 -552 -5 -543 0 -552 0 -523 19 48 29 112 108
130 159 10 30 34 239 66 581 42 440 48 535 37 542 -42 26 -59 40 -118 98 -36
36 -81 71 -100 77 -19 7 -27 13 -18 14 35 0 71 -22 121 -76 42 -46 115 -104
130 -104 1 0 3 10 4 23 11 178 12 180 54 206 49 32 69 74 69 150 l0 61 -267 2
c-324 3 -617 3 -1240 0 l-473 -2 0 -52 c0 -70 31 -132 80 -160 l38 -22 7 -98
c6 -86 9 -98 25 -98 10 0 26 -3 36 -7 13 -5 15 -3 9 7 -5 8 -4 11 3 7 5 -4 27
11 48 33 21 22 40 38 42 35 6 -6 31 19 26 27 -6 9 45 48 62 48 8 0 14 4 14 10
0 5 7 7 16 3 12 -5 9 -9 -14 -18 -16 -7 -54 -37 -83 -67 -77 -77 -112 -100
-146 -94 l-28 5 51 -549 c48 -503 54 -553 77 -602 28 -61 67 -107 117 -137
l35 -21 -497 0 c-274 0 -498 3 -498 6 0 8 294 1024 540 1864 185 632 185 632
140 706 -12 18 -38 43 -58 56 l-37 23 -1417 3 c-780 1 -1418 4 -1418 5 0 2 9
44 20 94 118 540 256 1960 205 2111 l-7 22 2851 0 c2273 0 2852 -3 2855 -12z
m-10117 -83 c-4 -31 -15 -43 -12 -13 4 35 5 38 10 38 3 0 4 -11 2 -25z m477
-30 c-4 -8 -10 -13 -15 -10 -4 3 -6 12 -3 20 4 8 10 13 15 10 4 -3 6 -12 3
-20z m15156 -41 c14 -15 18 -24 10 -20 -8 4 -5 0 7 -9 21 -16 21 -18 7 -43
-12 -20 -12 -23 -1 -9 18 22 27 22 27 -1 0 -10 6 -24 13 -30 8 -9 12 -47 12
-115 0 -80 -5 -118 -23 -174 -15 -45 -28 -70 -35 -66 -5 3 -8 2 -4 -3 7 -13
-68 -166 -77 -156 -5 4 -7 0 -5 -8 1 -8 -6 -33 -16 -55 -10 -22 -19 -42 -20
-45 -8 -32 -18 -50 -26 -50 -5 0 -9 -8 -9 -19 0 -26 -55 -143 -63 -135 -4 4
-6 -3 -6 -17 2 -25 -77 -209 -93 -220 -5 -3 -9 -8 -8 -10 4 -11 -59 -149 -77
-167 -7 -7 -13 -20 -13 -28 0 -24 -63 -133 -74 -127 -5 4 -7 0 -4 -8 4 -9 -11
-35 -36 -64 -58 -66 -72 -61 -185 66 -50 56 -106 112 -125 126 -42 28 -120 45
-135 30 -6 -6 -11 -7 -11 -3 0 5 -7 3 -15 -4 -9 -7 -17 -11 -19 -9 -22 29 -47
81 -35 75 8 -5 2 2 -12 15 -34 31 -71 97 -63 112 4 7 3 9 -1 4 -10 -9 -98 161
-90 174 4 5 2 9 -3 9 -5 0 -12 8 -15 18 -2 9 -8 26 -11 37 -4 11 3 2 15 -20
13 -22 22 -46 20 -54 -1 -7 2 -11 6 -8 13 8 65 -75 58 -92 -6 -15 12 -41 28
-41 6 0 2 6 -9 14 -10 8 -16 18 -11 22 4 4 8 5 10 3 1 -2 17 -23 35 -47 18
-23 30 -47 26 -54 -4 -6 -3 -8 3 -5 5 3 26 -11 45 -32 20 -20 56 -48 81 -61
l44 -24 54 27 c30 14 71 41 91 60 21 19 41 31 44 28 4 -3 4 -1 0 6 -3 6 5 23
19 37 14 14 23 26 19 26 -3 0 -1 7 6 15 10 12 16 13 29 3 14 -12 15 -11 2 5
-13 16 -13 20 0 28 8 5 10 9 5 9 -5 0 -2 8 6 18 8 9 30 44 48 77 54 100 114
200 125 207 5 4 7 8 3 8 -11 0 52 100 63 100 15 0 10 -15 -11 -38 -21 -22 -21
-22 -1 -19 11 2 24 7 28 12 5 4 2 5 -4 1 -17 -10 -16 4 2 28 8 11 15 25 15 30
0 6 -4 5 -9 -3 -5 -7 -11 -9 -14 -4 -3 5 16 33 43 63 27 30 49 60 50 66 0 7 7
14 15 18 8 3 20 17 25 32 10 26 11 26 33 8 12 -10 16 -12 10 -4 -20 21 -16 41
17 90 17 25 35 62 41 83 6 23 14 35 21 31 6 -4 8 -3 5 2 -6 11 11 104 23 119
4 6 6 56 5 112 l-3 103 26 -14 c15 -8 38 -27 52 -42z m-15659 7 c-14 -25 -41
-47 -41 -32 0 6 5 11 12 11 6 0 8 3 5 6 -9 10 12 45 24 39 6 -4 6 -13 0 -24z
m479 -1 c-6 -4 -11 -10 -11 -14 2 -13 -12 -46 -19 -46 -5 0 -13 -14 -19 -31
-6 -17 -15 -28 -21 -24 -6 4 1 23 19 48 16 23 30 47 31 52 7 26 13 34 22 29 6
-4 6 -9 -2 -14z m-557 -91 c-43 -45 -40 -42 -49 -27 -4 7 -3 8 4 4 7 -4 19 6
30 23 10 17 22 28 25 24 4 -3 7 1 7 11 0 9 5 14 10 11 7 -4 -5 -23 -27 -46z
m473 -65 c-11 -8 -21 -21 -22 -29 -3 -21 -54 -118 -66 -126 -4 -3 -10 -16 -13
-29 -2 -12 -7 -25 -10 -29 -7 -7 0 36 10 62 4 9 11 17 16 17 5 0 9 9 9 20 0
11 5 20 11 20 5 0 7 5 4 10 -3 6 -1 10 5 10 6 0 8 5 5 10 -3 6 -1 10 4 10 6 0
11 8 11 18 1 23 25 54 35 44 5 -4 5 2 1 13 -6 17 -5 18 6 7 11 -11 10 -16 -6
-28z m-543 7 c-12 -10 -20 -21 -18 -23 3 -3 -4 -13 -15 -23 -11 -10 -20 -13
-20 -7 0 15 50 72 63 72 7 -1 2 -9 -10 -19z m-3013 -16 c-7 -8 -17 -15 -22
-15 -6 0 -5 7 2 15 7 8 17 15 22 15 6 0 5 -7 -2 -15z m-45 -41 c-11 -8 -27
-21 -37 -28 -9 -8 -19 -12 -22 -9 -7 7 53 53 68 53 6 0 2 -7 -9 -16z m2978
-33 c-17 -11 -54 -70 -69 -108 -14 -37 -14 -37 -10 -6 6 37 67 133 80 125 4
-2 4 -7 -1 -11z m11602 -18 c27 -41 22 -76 -21 -133 -16 -22 -33 -40 -37 -40
-10 0 6 30 32 57 12 12 21 29 21 37 0 8 4 17 9 21 6 3 2 20 -10 39 -15 25 -26
33 -50 34 -17 0 -33 3 -36 6 -3 3 13 5 36 4 31 0 44 -6 56 -25z m-14684 -15
c-12 -4 -29 -15 -37 -23 -9 -8 -27 -17 -42 -21 -15 -3 -35 -9 -44 -15 -10 -5
-23 -9 -30 -8 -18 1 63 38 84 39 9 0 18 3 20 8 6 14 53 40 62 34 5 -3 -1 -9
-13 -14z m14579 10 c-14 -6 -31 -10 -39 -9 -7 1 -10 -2 -7 -8 4 -5 -3 -12 -14
-16 -30 -10 -158 -112 -258 -208 -12 -12 -28 -22 -35 -22 -6 0 -11 -9 -9 -20
2 -16 1 -17 -7 -5 -7 11 -4 21 11 37 12 13 23 21 26 19 2 -3 15 7 28 21 13 14
24 24 24 21 0 -3 19 13 43 36 46 44 62 58 117 96 19 13 37 27 40 30 15 18 51
36 76 37 l29 2 -25 -11z m2833 -65 c-7 -2 -19 -2 -25 0 -7 3 -2 5 12 5 14 0
19 -2 13 -5z m2717 2 c0 -2 -19 -14 -42 -26 -24 -12 -59 -35 -79 -50 -41 -32
-59 -38 -38 -13 14 17 76 59 94 64 6 1 19 9 30 16 20 14 35 18 35 9z m-20300
-14 c0 -5 -9 -11 -19 -14 -14 -3 -18 -1 -14 9 6 15 33 19 33 5z m-66 -11 c-30
-11 -109 -20 -95 -10 11 6 10 9 -4 11 -10 2 12 4 50 5 37 0 59 -3 49 -6z
m17655 -16 c72 -15 111 -81 182 -305 23 -74 57 -174 76 -224 80 -211 284 -570
415 -733 144 -177 133 -159 117 -190 -29 -56 -194 -208 -304 -281 -127 -84
-107 -90 -190 64 -67 124 -75 135 -210 280 -77 82 -136 134 -195 173 -148 98
-301 274 -325 375 -5 17 -19 33 -41 43 -18 9 -45 31 -59 50 -14 19 -35 34 -45
34 -56 0 -151 142 -185 274 -14 55 -14 61 3 79 26 29 61 44 158 67 116 28 288
78 336 97 37 15 57 52 21 39 -10 -3 -58 -19 -108 -36 -49 -17 -153 -47 -229
-66 -94 -23 -150 -42 -172 -59 l-32 -25 -7 31 c-7 33 1 127 13 145 4 6 17 16
29 23 39 20 414 102 496 108 55 4 77 10 77 19 0 17 -49 18 -140 3 -56 -9 -357
-76 -429 -96 -34 -9 -23 16 19 45 42 28 120 51 208 62 82 9 478 12 521 4z
m-14429 -59 c-6 -7 -8 -26 -5 -42 l5 -28 -11 28 c-8 20 -8 31 0 41 6 7 9 22 5
32 -5 18 -5 18 6 1 9 -13 9 -22 0 -32z m577 10 c-15 -16 -19 -13 -11 9 3 9 10
13 15 10 5 -3 3 -11 -4 -19z m-13 -49 c-6 -16 -24 -13 -24 5 0 6 5 7 10 4 6
-3 10 -1 10 6 0 7 2 10 5 7 3 -3 3 -13 -1 -22z m11066 14 c0 -5 -2 -10 -4 -10
-3 0 -8 5 -11 10 -3 6 -1 10 4 10 6 0 11 -4 11 -10z m-18 -29 c-5 -3 -22 -28
-37 -56 -16 -27 -33 -59 -39 -70 -6 -10 -17 -25 -24 -33 -7 -7 -9 -18 -6 -24
4 -7 2 -8 -4 -4 -8 5 -4 23 15 59 43 85 85 147 96 140 6 -3 5 -8 -1 -12z
m-11068 -17 c3 -8 2 -12 -4 -9 -6 3 -10 10 -10 16 0 14 7 11 14 -7z m-553
-176 l-8 -103 1 139 c0 91 3 127 8 103 4 -20 4 -83 -1 -139z m520 67 c-9 -29
-19 -51 -23 -49 -11 7 -10 34 1 34 6 0 13 21 17 46 3 25 10 41 14 34 4 -6 0
-35 -9 -65z m16348 35 c-18 -22 -36 -40 -42 -40 -5 0 6 18 23 40 17 22 36 40
41 40 6 0 -5 -18 -22 -40z m-15806 -173 c55 -94 227 -224 449 -342 l108 -57
-8 -41 c-9 -54 -9 -154 1 -189 4 -16 14 -28 23 -28 13 0 14 5 8 28 -10 31 -11
188 -2 198 4 3 16 3 27 -1 26 -8 36 -79 35 -235 -1 -110 -17 -197 -54 -295
l-11 -30 -34 63 c-101 189 -348 391 -721 588 l-124 66 0 101 c1 56 6 131 13
165 11 61 14 65 48 76 44 15 103 59 130 98 l21 29 33 -75 c18 -41 44 -95 58
-119z m10157 185 c0 -5 -11 -19 -25 -32 -14 -13 -25 -21 -25 -17 0 3 -10 -4
-23 -16 -13 -12 -22 -25 -20 -28 4 -9 -36 -43 -43 -36 -4 3 22 36 56 72 60 61
80 76 80 57z m5588 -87 c-6 -14 -13 -23 -15 -21 -5 5 15 46 22 46 3 0 -1 -11
-7 -25z m-16791 -72 c-2 -16 -4 -3 -4 27 0 30 2 43 4 28 2 -16 2 -40 0 -55z
m482 17 c0 -10 -3 -8 -9 5 -12 27 -12 43 0 25 5 -8 9 -22 9 -30z m17756 16 c9
-13 24 -71 35 -128 10 -56 40 -184 66 -283 43 -165 47 -190 48 -300 1 -114 -1
-123 -27 -170 -72 -130 -224 -225 -359 -225 l-48 0 0 41 c0 32 6 45 27 62 56
44 173 168 173 182 0 16 -26 21 -32 7 -4 -11 -147 -107 -151 -101 -1 2 -1 41
1 86 l4 82 51 30 c114 66 227 180 227 229 0 23 -16 10 -63 -54 -30 -42 -69
-78 -122 -113 -42 -28 -80 -51 -85 -51 -4 0 -10 46 -12 103 l-4 102 60 71 c87
102 141 183 130 194 -6 6 -47 -11 -109 -45 -54 -30 -103 -55 -107 -55 -4 0 -8
8 -8 18 0 10 -10 48 -21 83 l-21 64 66 61 c133 121 245 165 281 110z m-6750 4
c3 -5 1 -10 -4 -10 -6 0 -11 5 -11 10 0 6 2 10 4 10 3 0 8 -4 11 -10z m5273
-27 c-9 -10 -19 -28 -22 -40 -4 -13 -14 -30 -22 -38 -8 -8 -17 -23 -19 -32 -2
-10 -8 -29 -14 -43 -10 -25 -10 -25 -10 -2 -1 38 83 191 97 177 3 -3 -2 -13
-10 -22z m-16303 -88 c-9 -35 -14 -75 -10 -87 5 -20 5 -21 -5 -5 -12 18 -5
109 10 136 4 8 5 23 3 35 -4 19 -3 19 7 4 8 -14 7 -34 -5 -83z m11011 54 c-13
-29 -14 -31 -13 -9 1 14 7 30 12 36 16 19 17 8 1 -27z m7028 -204 c53 -121 96
-224 96 -228 0 -7 -169 -188 -171 -184 -1 4 -8 44 -14 87 -4 25 -29 132 -56
238 -27 107 -49 201 -49 209 0 21 81 116 90 106 4 -4 51 -107 104 -228z
m-7044 156 c0 -6 -5 -13 -10 -16 -6 -4 -8 -11 -5 -16 4 -5 1 -9 -4 -9 -12 0
-14 11 -5 34 7 17 24 22 24 7z m-11466 -35 c-3 -9 -10 -13 -16 -10 -5 3 -4 12
3 20 15 18 22 13 13 -10z m11446 -29 c0 -8 -3 -17 -7 -21 -5 -4 -9 -12 -9 -17
-1 -5 -2 -13 -3 -19 0 -5 -6 -10 -12 -10 -6 0 -7 5 -2 13 7 12 9 17 11 50 2
20 22 24 22 4z m-11463 -29 c-2 -17 -10 -33 -18 -36 -8 -2 -10 0 -4 5 6 4 10
14 11 21 3 35 4 42 10 42 3 0 3 -14 1 -32z m17099 -7 c-14 -10 -23 -21 -19
-26 5 -4 2 -5 -5 -1 -11 6 -9 13 9 32 12 13 26 21 31 18 6 -4 -2 -14 -16 -23z
m-408 -11 c-1 -16 -5 -30 -10 -30 -5 0 -6 -5 -2 -12 5 -7 3 -8 -6 -3 -9 6 -10
2 -5 -15 4 -14 3 -20 -3 -16 -5 3 -10 -4 -10 -17 -1 -12 -8 -40 -16 -62 l-15
-40 -1 33 c0 17 4 32 9 32 6 0 9 8 8 19 -1 15 43 141 50 141 1 0 1 -13 1 -30z
m365 -41 c-8 -8 -13 -7 -18 2 -5 8 -4 10 3 5 7 -4 12 -2 12 5 0 7 3 9 7 6 4
-4 2 -12 -4 -18z m-47 -58 c-15 -22 -34 -42 -42 -45 -8 -3 -14 -11 -14 -18 0
-7 -9 -24 -19 -37 -14 -19 -20 -21 -26 -10 -5 8 -4 11 0 7 5 -5 21 14 37 42
15 27 37 54 49 60 11 7 18 14 15 17 -6 6 17 33 23 27 2 -2 -8 -21 -23 -43z
m-16531 -9 c-3 -8 0 -19 7 -24 10 -7 9 -9 -2 -5 -8 2 -16 16 -18 31 -2 19 0
26 8 21 6 -4 9 -14 5 -23z m17605 -11 c0 -11 -20 -41 -44 -68 l-44 -48 -8 29
c-9 37 3 55 52 83 47 27 44 27 44 4z m-17023 -192 c234 -141 455 -331 521
-448 l23 -41 -42 22 c-54 28 -124 29 -170 2 -19 -11 -57 -49 -85 -83 -61 -76
-84 -90 -144 -90 -50 -1 -96 18 -218 87 -60 35 -80 51 -76 62 55 128 44 275
-36 481 -16 42 -34 95 -39 117 l-9 41 79 -40 c44 -21 132 -71 196 -110z
m15563 102 c0 -4 -7 -16 -16 -27 -15 -19 -15 -19 -6 1 5 11 7 26 4 34 -3 8 0
11 7 7 6 -4 11 -11 11 -15z m-16745 -38 c-20 -31 -58 -69 -110 -109 -39 -29
-48 -23 -12 8 57 50 127 121 127 131 0 6 3 7 6 4 4 -4 -1 -19 -11 -34z m17019
-9 c-9 -13 -21 -24 -26 -24 -5 0 -6 -4 -3 -10 3 -5 2 -10 -3 -10 -5 0 -15 -13
-22 -30 -7 -16 -17 -30 -22 -30 -5 0 -6 -4 -3 -10 3 -5 1 -10 -6 -10 -7 0 -10
-3 -6 -6 7 -7 -17 -60 -38 -84 -13 -15 -15 -19 -15 -41 0 -5 -5 -7 -11 -3 -8
4 -7 9 2 15 8 5 11 9 6 9 -9 0 20 58 42 84 9 10 15 21 14 25 -4 10 8 41 16 41
4 0 16 18 26 39 10 22 24 42 31 45 8 3 14 13 14 21 0 9 4 13 10 10 6 -4 4 -16
-6 -31z m-294 -25 c0 -6 -4 -7 -10 -4 -5 3 -10 11 -10 16 0 6 5 7 10 4 6 -3
10 -11 10 -16z m-14721 -137 c56 -111 116 -335 104 -383 -7 -24 -6 -24 -61 8
-56 33 -138 37 -189 10 -18 -10 -33 -15 -33 -12 0 3 9 42 21 87 23 89 30 254
16 366 l-8 64 60 -42 c48 -32 67 -53 90 -98z m14709 97 c-3 -8 -7 -3 -11 10
-4 17 -3 21 5 13 5 -5 8 -16 6 -23z m-18541 -11 c-3 -7 -5 -2 -5 12 0 14 2 19
5 13 2 -7 2 -19 0 -25z m18526 -52 c-6 -38 -16 -41 -18 -6 -1 11 3 20 8 20 5
0 6 12 3 28 -5 20 -4 23 3 11 6 -9 8 -32 4 -53z m-16040 28 c-4 -11 1 -22 12
-30 10 -8 15 -14 11 -14 -5 0 -1 -11 8 -24 9 -14 12 -27 7 -30 -4 -3 -16 14
-26 37 -10 23 -22 50 -26 60 -6 12 -4 17 6 17 9 0 12 -6 8 -16z m-2475 -98 c0
-57 -3 -108 -7 -114 -5 -8 -8 187 -3 211 6 27 9 -7 10 -97z m3954 54 c108 -24
130 -35 197 -102 146 -146 295 -461 397 -842 13 -49 22 -91 21 -92 -2 -2 -48
10 -102 26 -55 16 -113 30 -130 30 -38 0 -120 -39 -162 -76 -27 -25 -47 -31
-140 -45 -94 -13 -113 -14 -143 -1 -19 7 -62 15 -95 15 -113 3 -251 -86 -378
-245 -77 -97 -234 -317 -270 -379 -20 -34 -28 -38 -222 -102 -111 -37 -207
-67 -213 -67 -7 0 -12 8 -12 18 0 23 -19 42 -42 42 -11 0 -123 -42 -251 -94
l-232 -94 -85 5 c-87 6 -205 -12 -294 -43 -45 -16 -44 -15 29 42 118 92 316
267 385 341 131 139 171 247 171 463 1 134 -6 183 -25 177 -8 -3 -10 -44 -8
-138 4 -151 -12 -251 -53 -335 -48 -98 -249 -291 -537 -516 -167 -130 -168
-140 -13 -87 176 60 316 82 382 59 25 -9 43 -5 119 26 283 115 408 163 414
159 4 -2 10 -42 13 -87 17 -213 92 -392 217 -518 54 -53 59 -65 33 -73 -10 -3
-130 -57 -268 -121 -174 -80 -251 -121 -253 -133 -15 -74 -262 -234 -701 -453
-526 -263 -868 -363 -1241 -364 -259 -1 -406 35 -457 112 -49 75 -65 140 -71
282 -5 155 16 292 69 453 82 246 590 1348 797 1727 96 178 182 326 247 425 73
113 118 156 211 203 57 29 180 62 229 62 55 0 85 10 85 26 0 18 -40 17 -140
-1 -41 -7 -76 -12 -78 -10 -4 4 112 72 186 109 41 21 78 29 165 37 137 14 388
5 481 -15 91 -20 195 -73 281 -143 141 -115 217 -144 288 -112 21 9 36 4 113
-40 112 -64 182 -91 240 -91 65 0 103 22 152 88 81 108 148 130 236 78 25 -14
51 -34 58 -44 24 -34 37 -34 69 -2 71 70 153 83 233 36 85 -50 115 -20 96 97
-16 100 -49 203 -107 335 -7 16 6 15 109 -8z m14548 -46 c0 -8 -5 -14 -11 -14
-8 0 -9 -11 -5 -32 4 -26 3 -29 -5 -16 -11 20 -1 91 12 82 5 -3 9 -12 9 -20z
m-15973 -46 c-3 -7 -5 -2 -5 12 0 14 2 19 5 13 2 -7 2 -19 0 -25z m15940 -55
c-3 -10 -5 -4 -5 12 0 17 2 24 5 18 2 -7 2 -21 0 -30z m205 9 c-7 -2 -12 -15
-12 -30 0 -18 -3 -23 -10 -16 -14 14 8 66 23 57 8 -5 7 -8 -1 -11z m-205 -67
c-2 -36 -17 -50 -17 -16 0 20 9 51 15 51 2 0 3 -16 2 -35z m-18458 -100 c0
-69 -4 -123 -8 -121 -4 3 -7 52 -6 111 1 58 -2 100 -7 93 -6 -11 -8 -11 -8 0
0 11 19 40 27 42 2 0 2 -56 2 -125z m18639 90 c-3 -3 -9 2 -12 12 -6 14 -5 15
5 6 7 -7 10 -15 7 -18z m-22 -20 c0 -14 -4 -25 -8 -25 -4 0 -5 -8 -1 -17 4
-13 3 -15 -6 -7 -8 8 -8 18 0 42 13 39 17 40 15 7z m-159 -37 c-3 -8 -6 -5 -6
6 -1 11 2 17 5 13 3 -3 4 -12 1 -19z m-14 -66 c1 -33 -1 -58 -5 -56 -4 3 -7
32 -7 65 1 77 10 70 12 -9z m140 -12 c-20 -53 -21 -55 -29 -47 -4 4 -1 13 5
21 10 12 17 40 20 81 1 5 5 5 11 -1 7 -7 4 -25 -7 -54z m1377 25 c0 -2 -10 -9
-22 -15 -22 -11 -22 -10 -4 4 21 17 26 19 26 11z m-2651 -72 c8 -7 10 -13 5
-13 -15 0 -54 39 -54 53 0 6 8 2 18 -8 9 -11 23 -26 31 -32z m1130 -138 c3
-123 -5 -104 -12 30 -3 61 -2 98 2 84 5 -14 9 -66 10 -114z m-1099 100 c7 -9
11 -17 8 -20 -2 -2 -12 4 -21 15 -9 11 -13 20 -8 20 5 0 14 -7 21 -15z
m-17344 -51 c-4 -14 -9 -24 -12 -21 -3 2 -2 17 2 31 3 15 9 25 11 22 3 -3 2
-17 -1 -32z m17454 -75 c0 -6 5 -7 12 -3 7 4 8 3 4 -4 -4 -7 -3 -12 2 -12 5 0
15 -11 22 -25 7 -13 16 -22 20 -20 4 3 13 -2 19 -9 7 -8 8 -17 3 -20 -10 -6
-102 99 -102 117 0 6 -3 7 -6 4 -7 -7 -44 30 -44 45 0 4 -3 7 -7 7 -17 -3 -24
2 -17 12 7 11 94 -74 94 -92z m-17448 11 c-6 -15 -11 -19 -16 -12 -4 7 -1 18
6 26 17 19 20 14 10 -14z m20030 -195 c1 -124 3 -258 3 -297 l0 -73 -105 -22
c-117 -25 -133 -27 -126 -15 3 5 9 35 15 68 69 412 87 533 82 543 -6 9 22 16
73 19 l56 2 2 -225z m-1521 90 c-6 -24 -11 -58 -11 -75 0 -18 -4 -29 -10 -25
-5 3 -7 24 -3 48 4 23 7 50 7 59 0 9 4 14 8 12 4 -3 8 7 9 23 0 15 3 22 6 15
3 -7 0 -33 -6 -57z m-18501 45 c0 -5 -4 -10 -10 -10 -5 0 -10 5 -10 10 0 6 5
10 10 10 6 0 10 -4 10 -10z m18423 -82 c2 -27 1 -48 -4 -48 -5 0 -9 26 -8 58
1 64 5 60 12 -10z m-839 -11 c4 4 6 1 4 -7 -2 -9 3 -14 12 -12 8 2 12 1 9 -2
-3 -4 17 -30 46 -59 28 -28 62 -68 75 -87 20 -29 15 -26 -28 17 -29 29 -52 55
-52 58 1 7 -26 35 -34 35 -12 0 -74 75 -69 84 3 5 11 -1 17 -13 7 -12 16 -18
20 -14z m-16910 -37 c18 -6 18 -7 -2 -12 -14 -4 -20 -2 -15 4 4 8 -11 9 -49 5
-41 -5 -59 -3 -74 8 -17 14 -12 14 51 9 39 -4 79 -10 89 -14z m91 -10 c-44
-11 -67 -11 -60 0 3 6 25 9 48 9 40 -1 40 -2 12 -9z m105 -10 c0 -6 -23 -9
-52 -8 l-53 1 45 7 c25 4 48 8 53 8 4 1 7 -2 7 -8z m17556 -117 c-3 -60 -6
-127 -6 -150 1 -26 -4 -43 -11 -43 -11 0 -10 15 7 143 4 31 2 47 -5 47 -6 0
-11 12 -11 26 0 16 4 23 11 18 8 -5 10 4 7 30 -2 20 0 36 5 36 4 0 6 -48 3
-107z m-3629 47 c42 -25 54 -51 98 -201 49 -167 243 -835 317 -1089 32 -113
120 -414 195 -670 74 -256 148 -510 164 -565 34 -118 36 -166 9 -210 -43 -70
95 -65 -1768 -63 l-1680 3 -27 25 c-15 14 -33 36 -40 51 -7 14 -126 414 -264
890 -138 475 -269 925 -291 999 -152 518 -200 691 -200 716 0 39 32 90 72 114
33 20 54 20 1708 20 1644 0 1676 0 1707 -20z m-5471 -12 c24 -11 43 -24 42
-27 -1 -3 6 -22 15 -42 14 -33 15 -41 1 -90 -9 -30 -22 -79 -31 -109 -8 -30
-20 -64 -26 -75 -6 -11 -10 -26 -9 -33 3 -11 -17 -85 -35 -132 -4 -8 -6 -18
-5 -22 1 -4 -3 -20 -10 -35 -6 -15 -12 -30 -12 -33 -14 -68 -72 -247 -79 -243
-6 3 -7 1 -3 -6 10 -15 -3 -73 -14 -66 -5 3 -12 0 -16 -6 -5 -8 -3 -9 6 -4 13
8 8 -33 -10 -85 -10 -27 -66 -219 -114 -390 -9 -30 -29 -100 -45 -155 -16 -55
-37 -128 -46 -162 -11 -37 -22 -60 -28 -56 -6 3 -7 1 -3 -5 7 -12 -1 -52 -39
-177 -57 -189 -95 -317 -125 -425 -18 -63 -39 -124 -48 -134 -12 -13 -12 -17
-3 -11 11 6 13 4 8 -8 -3 -9 -16 -52 -28 -96 -17 -61 -30 -87 -56 -113 l-34
-33 -1907 -3 c-1049 -1 -1921 0 -1938 3 -43 7 -76 38 -68 61 4 14 3 16 -4 5
-12 -16 -27 3 -16 21 4 7 3 8 -4 4 -8 -5 -12 4 -12 28 0 19 5 38 10 41 6 4 8
10 6 14 -7 10 79 300 92 313 6 6 8 17 5 25 -3 7 2 33 10 56 9 23 21 62 27 87
6 25 14 52 17 60 3 8 7 22 9 30 16 74 72 239 79 233 4 -5 5 -3 2 3 -9 16 3 75
14 69 4 -3 11 0 15 6 5 8 3 9 -6 4 -14 -9 -8 32 15 100 13 37 34 110 66 227 7
26 17 45 21 42 4 -3 5 1 3 8 -3 7 31 138 75 291 44 152 80 279 80 282 0 4 4 3
10 0 6 -3 7 1 4 9 -3 8 4 48 16 88 12 40 37 123 55 183 18 61 47 162 65 225
18 63 39 124 48 134 10 12 12 16 3 11 -10 -6 -12 -2 -6 16 18 57 49 99 85 112
8 3 874 6 1924 6 l1909 1 43 -22z m8578 -208 c23 -25 67 -72 96 -105 29 -33
88 -97 131 -143 44 -45 79 -88 79 -95 0 -7 -12 2 -26 18 -13 17 -57 64 -97
105 -110 116 -167 181 -167 191 0 6 -4 7 -10 4 -5 -3 -10 -2 -10 3 0 5 -31 39
-68 76 -38 37 -69 73 -69 81 0 7 22 -10 49 -38 26 -29 68 -72 92 -97z m-1258
94 c0 -5 11 -31 23 -58 15 -34 18 -53 11 -60 -7 -7 -10 -4 -10 10 0 10 -7 32
-15 47 -8 15 -16 36 -17 45 -2 9 -7 21 -13 25 -6 5 -4 7 5 4 8 -2 15 -8 16
-13z m-12150 -103 c82 -26 181 -64 219 -84 190 -96 127 -142 -115 -84 -58 14
-127 28 -155 32 -35 5 -59 16 -80 36 -28 26 -39 29 -129 35 -80 6 -98 5 -94
-6 3 -9 24 -15 59 -17 78 -4 99 -24 133 -124 34 -100 38 -196 12 -303 -11 -46
-13 -73 -7 -79 13 -13 26 19 40 99 23 121 9 243 -40 353 l-19 44 21 -19 c26
-24 78 -125 114 -224 21 -59 29 -105 36 -215 15 -211 2 -261 -61 -235 -38 16
-62 53 -75 118 -6 29 -15 53 -20 53 -5 0 -15 -29 -21 -63 -15 -80 -38 -136
-60 -145 -25 -9 -81 25 -95 60 -7 17 -13 46 -13 64 0 51 -24 37 -52 -30 -74
-176 -205 -329 -335 -390 -50 -25 -101 -40 -155 -48 -46 -6 -118 -26 -174 -49
-52 -21 -185 -75 -295 -120 l-200 -82 -60 64 c-96 102 -156 235 -185 416 -7
41 -8 77 -4 82 5 4 101 38 214 75 113 37 210 70 216 74 6 3 57 74 112 156 169
250 265 362 376 438 99 67 173 79 261 42 26 -10 52 -9 153 6 116 16 125 19
163 54 48 43 92 64 135 65 18 0 99 -22 180 -49z m12204 -64 c-8 -9 -10 -8 -5
6 4 10 2 17 -5 17 -6 0 -8 5 -4 11 5 8 10 6 16 -6 7 -11 6 -21 -2 -28z m1713
-76 c2 -59 1 -97 -4 -90 -8 13 -13 207 -5 198 2 -2 6 -51 9 -108z m-1694 42
c0 -25 -1 -25 -8 -8 -5 11 -7 23 -4 28 8 14 13 7 12 -20z m293 -16 c24 -31 22
-60 -7 -91 -32 -34 -60 -33 -97 4 -24 25 -29 36 -23 58 7 31 33 55 53 47 8 -3
10 0 6 7 -13 21 50 -2 68 -25z m2967 -14 c-1 -10 1 -25 4 -33 27 -66 79 -936
76 -1273 0 -87 2 -161 5 -164 8 -8 8 -658 0 -717 l-7 -46 -203 0 c-112 0 -205
3 -206 8 0 4 -2 18 -4 32 -1 14 -9 87 -18 163 -9 76 -16 150 -16 165 0 29 -3
64 -19 207 -5 50 -15 146 -21 215 -6 69 -14 166 -19 215 -7 82 -5 100 21 205
16 63 31 124 33 135 2 11 11 49 20 85 8 36 16 72 16 80 1 8 19 94 40 190 21
96 39 183 39 193 0 11 4 15 12 11 7 -4 8 -3 4 5 -9 14 15 151 26 151 4 0 5 6
2 13 -4 12 20 135 28 142 7 6 135 33 161 34 21 1 28 -3 26 -16z m-3226 -33 c3
-11 0 -23 -5 -27 -6 -3 -8 -1 -4 5 3 5 1 12 -6 14 -6 2 -8 10 -4 16 10 16 13
15 19 -8z m-12239 -16 l75 -17 5 -76 c13 -166 27 -261 56 -376 47 -185 60
-285 60 -455 0 -289 -65 -688 -188 -1160 l-27 -105 -1548 -3 c-1000 -1 -1547
1 -1547 8 0 5 24 19 53 32 168 71 656 328 762 401 82 57 168 132 189 166 17
27 40 45 77 61 30 12 108 48 174 79 66 31 156 73 199 91 55 24 85 43 95 62 12
20 38 37 96 60 44 17 171 69 282 114 147 60 222 86 276 93 133 19 217 60 320
160 62 59 112 127 158 214 l36 69 21 -37 c22 -36 71 -65 111 -65 28 0 60 38
73 87 l12 41 27 -38 c30 -41 84 -66 119 -55 39 12 45 41 43 210 -3 179 -17
245 -77 378 -40 88 -43 85 68 61z m-4267 -43 c43 -21 125 -56 183 -77 58 -20
109 -41 113 -44 5 -4 -10 -44 -32 -88 -56 -112 -231 -488 -336 -724 -48 -109
-91 -198 -94 -198 -4 0 -5 30 -4 68 28 696 60 1102 87 1102 3 0 40 -17 83 -39z
m16519 14 c-3 -8 -2 -15 2 -15 4 0 20 -26 35 -57 42 -90 48 -111 35 -119 -7
-4 -8 -3 -4 4 4 7 3 12 -3 12 -6 0 -7 7 -4 17 5 11 3 14 -6 8 -10 -6 -11 -2
-6 15 5 15 4 20 -4 16 -6 -4 -11 -4 -12 1 -2 29 -11 58 -18 63 -14 9 -32 50
-26 60 10 15 18 12 11 -5z m-12103 -12 c-7 -2 -21 -2 -30 0 -10 3 -4 5 12 5
17 0 24 -2 18 -5z m285 -43 c139 0 182 -3 182 -12 0 -7 -40 -150 -89 -318 -49
-168 -164 -564 -256 -880 -91 -316 -171 -586 -176 -600 l-9 -25 4 25 c2 14 22
115 45 225 61 298 82 455 88 675 6 223 -2 303 -51 506 -41 168 -56 261 -56
350 l0 67 68 -6 c37 -4 149 -7 250 -7z m13467 -96 c-6 -137 -24 -174 -25 -50
0 74 14 156 27 156 1 0 1 -48 -2 -106z m-1267 -50 c12 -8 22 -22 22 -30 0 -8
5 -14 10 -14 18 0 11 -28 -16 -59 -47 -56 -108 -34 -118 42 -4 31 0 40 21 57
31 24 51 25 81 4z m-268 -52 c0 -7 7 -20 15 -28 8 -9 15 -21 15 -27 0 -7 -4
-6 -10 3 -5 8 -10 11 -10 5 0 -5 -11 13 -24 40 -13 28 -21 54 -18 59 6 10 31
-32 32 -52z m1947 -11 c-27 -4 -67 -4 -90 0 -31 5 -18 6 48 6 72 0 80 -1 42
-6z m103 -2 c0 -6 6 -9 13 -6 8 3 29 1 48 -3 30 -8 28 -8 -17 -6 -54 3 -111
25 -66 26 12 0 22 -5 22 -11z m-233 -7 c7 -5 -10 -12 -42 -18 -61 -11 -73 -4
-22 13 42 14 50 14 64 5z m376 -35 c-4 -6 0 -8 11 -4 18 7 56 -11 56 -27 0 -4
-6 -3 -13 3 -8 6 -18 7 -22 3 -5 -4 -4 -1 0 7 6 11 4 13 -8 8 -17 -7 -81 15
-72 25 10 10 55 -4 48 -15z m-676 -24 c-3 -10 -5 -4 -5 12 0 17 2 24 5 18 2
-7 2 -21 0 -30z m-1482 -3 c-3 -5 -1 -10 5 -10 9 0 60 -98 60 -117 0 -5 11
-24 23 -43 13 -19 29 -49 35 -67 6 -17 20 -41 31 -52 12 -12 21 -31 21 -43 0
-21 0 -21 -14 -3 -8 11 -12 23 -10 27 3 5 1 8 -4 8 -5 0 -17 19 -28 43 -10 23
-34 69 -52 102 -30 53 -38 72 -41 96 -1 3 -10 16 -21 29 -22 26 -26 40 -9 40
5 0 7 -4 4 -10z m2261 -11 c3 -6 22 -18 41 -26 19 -8 33 -16 30 -19 -3 -3 -23
4 -45 15 -41 21 -62 41 -43 41 5 0 13 -5 17 -11z m132 -88 c13 -7 22 -15 19
-17 -9 -9 -77 38 -70 48 4 7 10 6 17 -4 6 -8 22 -20 34 -27z m-682 -16 c-8 -8
-18 -15 -22 -15 -3 0 -1 7 6 15 7 8 17 15 22 15 5 0 3 -7 -6 -15z m76 -17 c24
-12 45 -25 48 -30 3 -4 15 -9 25 -10 11 -2 21 -7 23 -11 2 -8 -4 -8 -40 5 -16
6 -28 14 -28 19 0 5 -9 9 -19 9 -11 0 -23 5 -26 10 -4 6 -11 7 -17 4 -7 -5 -8
-2 -3 6 6 9 1 10 -16 5 -19 -5 -21 -4 -9 4 19 13 12 15 62 -11z m795 -155 c-3
-3 -21 12 -39 33 -18 20 -39 43 -45 50 -7 7 -13 16 -13 21 0 4 23 -16 51 -45
28 -29 49 -55 46 -59z m-654 74 c-4 -6 0 -8 11 -4 10 4 15 3 11 -3 -3 -6 1
-10 10 -10 9 0 14 -4 10 -9 -3 -6 -21 -1 -40 10 -33 20 -41 44 -10 33 8 -4 12
-11 8 -17z m-113 -45 c32 -38 97 -128 109 -150 7 -13 22 -35 34 -48 11 -13 22
-31 23 -39 1 -8 9 -22 18 -31 9 -8 14 -19 11 -24 -3 -5 0 -10 7 -12 7 -3 8 -7
2 -10 -5 -4 -23 19 -39 50 -17 31 -33 59 -36 62 -3 3 -25 35 -48 73 -24 37
-47 67 -52 67 -6 0 -7 5 -4 10 3 6 1 10 -5 10 -6 0 -15 11 -22 25 -6 13 -15
22 -19 19 -5 -3 -9 0 -9 5 0 16 14 13 30 -7z m236 -38 c13 -12 24 -20 26 -18
2 2 31 -23 63 -56 33 -33 54 -60 49 -60 -13 0 -104 89 -104 101 0 5 -3 8 -7 7
-11 -4 -103 68 -97 75 6 6 30 -12 70 -49z m-8651 -43 c8 -14 -13 -24 -33 -16
-14 5 -14 7 -2 15 19 12 27 12 35 1z m42 3 c-3 -3 -12 -4 -19 -1 -8 3 -5 6 6
6 11 1 17 -2 13 -5z m533 2 c0 -3 -4 -8 -10 -11 -5 -3 -10 -1 -10 4 0 6 5 11
10 11 6 0 10 -2 10 -4z m-979 -104 c39 -40 76 -69 82 -65 5 3 7 1 4 -4 -4 -7
10 -9 41 -5 26 2 44 1 40 -3 -4 -4 -24 -9 -45 -10 -45 -3 -74 15 -154 96 -30
31 -65 60 -77 63 -12 4 -20 11 -17 16 9 15 53 -16 126 -88z m949 88 c0 -5 -5
-10 -11 -10 -17 0 -69 -47 -61 -55 4 -5 3 -6 -3 -4 -13 6 -65 -47 -56 -57 3
-4 0 -4 -6 0 -7 4 -13 3 -13 -3 0 -17 -43 -40 -83 -45 -53 -7 -82 8 -163 86
-38 38 -83 73 -100 78 -28 10 -28 10 6 5 26 -4 52 -23 105 -75 73 -72 103 -89
145 -84 14 1 28 3 32 3 4 1 48 39 97 86 85 81 111 98 111 75z m6068 -19 c57
-49 -8 -151 -75 -119 -33 16 -65 68 -45 75 6 3 10 9 7 13 -10 16 34 50 63 50
16 0 39 -8 50 -19z m-6668 2 c-16 -7 -40 -29 -37 -34 1 -2 1 -4 -1 -3 -1 0
-27 -23 -58 -53 -61 -58 -92 -73 -41 -20 18 18 34 32 37 31 3 0 13 7 23 18 9
10 14 18 11 18 -3 0 8 11 23 25 15 13 35 24 43 24 13 -1 13 -1 0 -6z m6864
-19 c3 -8 4 -15 3 -17 -1 -1 8 -13 21 -27 12 -13 21 -29 18 -36 -2 -6 9 -26
25 -45 16 -19 27 -39 25 -44 -2 -6 2 -19 10 -30 10 -14 14 -15 15 -4 0 8 10
-7 23 -32 13 -26 33 -57 44 -69 12 -13 19 -26 17 -30 -3 -4 7 -20 20 -36 14
-16 29 -34 33 -39 4 -6 13 -17 19 -26 10 -13 10 -16 -3 -16 -9 0 -20 10 -24
22 -5 12 -20 35 -34 50 -14 15 -26 36 -26 46 0 11 -4 19 -8 19 -7 0 -38 46
-42 62 0 4 -14 21 -30 39 -17 17 -27 35 -24 40 3 5 -3 18 -14 29 -10 11 -25
33 -33 48 -7 15 -22 39 -32 55 -10 15 -15 27 -11 27 4 0 -1 9 -11 20 -16 17
-16 20 -3 15 9 -4 19 -13 22 -21z m2015 -78 c17 -19 20 -26 9 -32 -7 -4 -10
-4 -6 0 4 5 -5 19 -20 32 -15 13 -22 24 -16 24 6 0 21 -11 33 -24z m74 -114
c-4 -9 -2 -13 3 -9 12 7 50 -52 46 -72 -2 -7 1 -10 7 -6 6 3 11 1 11 -4 0 -23
-20 -9 -34 23 -8 19 -24 44 -35 55 -12 12 -19 26 -16 31 3 5 -4 14 -15 20 -11
6 -20 18 -20 28 1 12 9 8 30 -17 17 -20 26 -40 23 -49z m-239 -83 c-3 -5 0 -9
6 -9 7 0 10 -7 6 -15 -3 -8 -1 -15 4 -15 5 0 6 -7 3 -17 -4 -10 -2 -14 4 -10
7 5 9 0 6 -13 -3 -11 -1 -20 5 -20 12 0 18 -16 31 -82 4 -27 5 -48 1 -48 -9 0
-25 77 -21 98 1 6 -2 12 -8 12 -8 0 -50 109 -57 146 -1 6 -5 22 -8 35 -4 13 2
7 13 -15 11 -21 18 -43 15 -47z m321 -39 c3 -5 2 -10 -4 -10 -5 0 -13 5 -16
10 -3 6 -2 10 4 10 5 0 13 -4 16 -10z m214 -97 c0 -5 -4 -17 -8 -27 -7 -18 -8
-18 -14 -3 -3 9 -2 17 4 17 6 0 7 5 4 10 -3 6 -1 10 4 10 6 0 11 -3 10 -7z
m-27 -65 c-6 -6 -8 -18 -5 -27 4 -11 3 -13 -5 -6 -13 12 -4 57 10 49 6 -4 6
-10 0 -16z m-2051 -10 c7 -13 15 -25 19 -28 10 -8 40 -54 40 -62 0 -5 -9 1
-20 12 -11 11 -20 25 -20 30 0 6 -4 10 -8 10 -5 0 -18 14 -30 30 -18 23 -19
30 -8 30 9 0 21 -10 27 -22z m2039 -49 c0 -6 -4 -7 -10 -4 -5 3 -10 11 -10 16
0 6 5 7 10 4 6 -3 10 -11 10 -16z m-17 -46 c-3 -9 -9 -11 -15 -5 -5 5 -6 17
-2 26 5 13 9 14 14 5 5 -7 6 -19 3 -26z m-1919 -67 c1 -10 7 -21 12 -24 6 -4
14 -16 17 -27 5 -14 0 -11 -17 9 -14 17 -23 33 -21 36 2 4 -5 14 -16 23 -10 9
-19 22 -19 29 0 18 41 -25 44 -46z m1876 -36 c0 -5 -4 -10 -10 -10 -5 0 -9 -3
-8 -7 6 -23 -61 -175 -74 -167 -4 3 -1 12 7 20 8 9 15 24 15 34 0 28 11 51 21
44 5 -3 9 6 9 20 0 29 19 76 32 76 4 0 8 -4 8 -10z m-1807 -67 c-4 -10 -2 -14
4 -10 6 4 19 -6 29 -21 18 -27 20 -31 23 -53 0 -5 5 -8 10 -5 5 3 14 -9 20
-26 14 -40 7 -33 -62 62 -30 41 -53 79 -50 83 8 14 32 -14 26 -30z m-670 -120
c26 -24 22 -71 -9 -99 -14 -13 -31 -24 -39 -24 -52 0 -97 59 -76 99 27 50 82
61 124 24z m2361 -65 c-15 -24 -27 -47 -26 -51 1 -5 -2 -6 -8 -2 -9 6 -14 -6
-11 -31 1 -6 -6 -17 -14 -24 -8 -7 -15 -17 -15 -22 0 -10 -56 -102 -97 -160
-14 -19 -23 -26 -23 -16 0 8 11 28 24 43 14 16 22 33 19 38 -3 6 -1 7 5 3 8
-5 12 0 12 13 0 12 5 21 10 21 6 0 10 7 10 16 0 9 5 12 12 8 8 -5 9 -2 5 10
-4 9 -3 15 2 12 5 -3 11 4 15 17 3 12 5 22 4 22 -7 0 69 122 80 131 9 7 12 16
7 25 -6 11 -5 12 5 2 11 -10 8 -20 -16 -55z m-1579 32 c-3 -5 -1 -10 4 -10 6
0 11 -7 11 -17 0 -9 3 -13 7 -10 5 6 41 -34 36 -40 -1 -1 14 -19 32 -39 19
-20 32 -40 30 -45 -3 -4 2 -9 9 -12 8 -3 20 -16 27 -29 8 -16 0 -11 -27 15
-22 21 -40 43 -40 48 -1 5 -2 14 -3 19 0 6 -5 9 -10 8 -13 -4 -92 103 -85 113
3 5 7 9 10 9 3 0 2 -4 -1 -10z m198 -262 c-5 -10 -33 10 -33 23 0 5 9 4 19 -3
11 -7 17 -16 14 -20z m32 -38 c5 1 11 -3 13 -9 6 -17 -13 -13 -31 7 -10 10
-14 22 -10 26 4 4 10 0 13 -9 3 -9 10 -16 15 -15z m126 -143 c41 -51 53 -81
19 -47 -11 11 -20 23 -21 28 0 4 -7 11 -15 15 -8 5 -12 12 -9 18 4 5 -1 9 -9
9 -8 0 -21 10 -27 23 -7 12 -20 28 -31 35 -10 7 -18 17 -18 23 0 14 67 -49
111 -104z m1013 81 c-9 -13 -10 -18 -13 -39 0 -5 -6 -7 -12 -3 -8 4 -7 9 2 15
8 5 10 9 6 9 -4 0 -3 9 3 21 7 11 14 18 17 16 3 -3 1 -12 -3 -19z m-61 -92
c-15 -20 -32 -36 -38 -36 -6 0 -6 3 0 8 6 4 21 22 34 40 13 18 25 31 28 28 3
-2 -8 -21 -24 -40z m-1767 -169 c5 -5 9 -26 9 -49 0 -72 52 -68 -827 -68
l-787 0 24 35 c13 20 27 49 30 66 l7 29 768 -2 c423 -2 772 -7 776 -11z
m-12746 -12 c0 -9 11 -33 25 -55 l25 -40 -785 2 -786 3 -17 27 c-14 23 -14 30
-2 52 l13 26 764 0 c676 0 763 -2 763 -15z"/>
<path d="M16103 15136 l-28 -24 -3 -180 c-5 -268 -8 -265 261 -260 170 3 176
4 201 27 l26 24 0 191 c-1 134 -4 196 -13 207 -26 34 -54 39 -236 39 -176 0
-181 -1 -208 -24z m413 -27 c17 -19 19 -38 19 -196 0 -227 15 -213 -217 -213
-166 0 -169 0 -193 25 -25 24 -25 27 -25 195 0 226 -16 210 218 210 169 0 180
-1 198 -21z"/>
<path d="M16673 15136 l-28 -24 -3 -177 c-5 -269 -9 -265 253 -265 l177 0 29
29 c32 33 31 22 30 243 0 167 -5 188 -48 207 -14 7 -97 11 -203 11 -175 0
-180 -1 -207 -24z m409 -23 c16 -14 18 -34 18 -195 0 -234 16 -218 -210 -218
-168 0 -171 0 -195 25 -24 24 -25 27 -25 185 0 156 6 194 34 212 6 4 89 8 185
8 148 0 177 -2 193 -17z"/>
<path d="M17257 15149 c-39 -23 -47 -61 -47 -234 0 -249 -1 -248 263 -243 174
3 177 3 202 29 26 25 26 25 26 211 1 198 -3 217 -48 237 -31 14 -372 14 -396
0z m363 -29 c0 -5 6 -7 13 -4 28 10 38 -45 36 -206 -2 -216 10 -204 -202 -208
-161 -3 -165 -3 -190 20 -25 23 -25 25 -26 199 l0 175 27 17 c22 14 54 17 185
17 95 0 157 -4 157 -10z"/>
<path d="M9751 15094 c-19 -24 -21 -40 -21 -166 0 -134 1 -140 25 -163 16 -17
35 -25 59 -25 82 0 96 28 96 190 0 164 -14 190 -100 190 -30 0 -43 -6 -59 -26z
m87 -36 c19 -19 16 -232 -3 -252 -9 -8 -22 -13 -30 -10 -12 5 -15 31 -15 133
0 70 3 131 7 134 10 11 28 8 41 -5z"/>
<path d="M9948 14954 c-4 -210 -3 -214 27 -214 23 0 24 3 27 78 3 74 4 77 28
80 75 8 90 28 90 116 0 79 -20 99 -103 104 l-66 4 -3 -168z m107 51 c0 -47 -2
-50 -27 -53 -28 -3 -28 -3 -28 53 0 56 0 56 28 53 25 -3 27 -6 27 -53z"/>
<path d="M10150 14930 l0 -190 80 0 80 0 0 30 c0 29 -1 30 -50 30 l-50 0 0 55
0 55 40 0 c38 0 40 2 40 30 0 28 -2 30 -40 30 l-40 0 0 45 0 45 50 0 c49 0 50
1 50 30 l0 30 -80 0 -80 0 0 -190z"/>
<path d="M10349 15088 c0 -18 0 -103 -1 -188 l0 -155 26 -3 26 -3 1 128 1 128
32 -125 32 -125 32 -3 32 -3 0 190 0 191 -25 0 c-29 0 -28 5 -25 -115 1 -49
-1 -87 -5 -83 -4 3 -13 32 -21 65 -37 145 -31 133 -69 133 -33 0 -35 -2 -36
-32z"/>
<path d="M10670 15093 c-18 -23 -21 -37 -17 -76 4 -42 11 -55 56 -101 39 -40
51 -59 51 -83 0 -38 -34 -53 -50 -22 -6 10 -7 19 -3 19 4 0 0 7 -10 15 -49 36
-69 -46 -21 -84 62 -49 144 -10 144 69 0 52 -11 73 -67 131 -35 37 -44 52 -41
75 4 42 36 45 51 5 15 -41 57 -45 57 -5 0 28 -16 65 -34 76 -6 4 -30 8 -53 8
-34 0 -46 -5 -63 -27z"/>
<path d="M10874 15095 c-25 -25 -25 -27 -22 -171 3 -139 4 -147 27 -165 34
-28 96 -25 126 6 24 23 25 29 25 163 0 126 -2 142 -21 166 -29 37 -99 37 -135
1z m90 -41 c3 -9 6 -67 6 -129 0 -101 -2 -115 -18 -124 -34 -18 -42 6 -42 129
0 114 7 140 36 140 6 0 15 -7 18 -16z"/>
<path d="M11069 14998 c-1 -193 0 -211 24 -235 29 -32 90 -31 122 2 25 24 25
27 25 190 l0 165 -25 0 c-14 0 -25 -3 -25 -7 -3 -258 -6 -304 -19 -312 -36
-23 -41 -4 -41 160 l0 159 -30 0 -30 0 -1 -122z"/>
<path d="M11280 14931 l0 -191 30 0 30 0 0 80 c0 78 1 80 24 80 30 0 36 -16
36 -96 l0 -64 30 0 30 0 0 73 c0 40 -6 83 -14 97 -11 21 -10 30 2 54 18 36 11
111 -12 134 -11 11 -39 18 -86 20 l-70 4 0 -191z m116 104 c11 -42 -3 -75 -31
-75 -23 0 -25 3 -25 50 0 47 2 50 25 50 18 0 26 -7 31 -25z"/>
<path d="M11519 15101 c-23 -18 -24 -27 -27 -146 -2 -70 -1 -138 2 -151 11
-41 42 -64 86 -64 48 0 76 24 85 73 10 53 4 71 -25 71 -22 1 -26 -5 -30 -39
-4 -32 -10 -41 -27 -43 -29 -4 -33 15 -30 147 2 87 5 106 20 115 22 14 37 -5
37 -46 0 -25 4 -28 31 -28 l32 0 -6 47 c-3 32 -12 53 -27 65 -29 24 -91 23
-121 -1z"/>
<path d="M11700 14930 l0 -190 80 0 80 0 0 30 c0 29 -1 30 -50 30 l-50 0 0 55
0 55 40 0 c38 0 40 2 40 30 0 28 -2 30 -40 30 l-40 0 0 45 0 45 50 0 c49 0 50
1 50 30 l0 30 -80 0 -80 0 0 -190z"/>
<path d="M13073 13500 c-32 -13 -46 -47 -40 -97 5 -49 22 -72 85 -115 44 -31
66 -66 56 -93 -8 -19 -43 -19 -49 0 -3 8 -7 21 -9 29 -3 9 -14 12 -30 9 -37
-7 -34 -46 4 -85 27 -26 36 -30 67 -25 45 8 71 31 79 72 9 50 -17 98 -80 144
-53 39 -76 77 -61 100 11 19 35 12 47 -14 12 -26 17 -29 42 -19 21 8 20 47 -1
73 -20 24 -77 35 -110 21z"/>
<path d="M12880 13463 c-76 -39 -64 -127 26 -194 57 -42 81 -77 71 -103 -10
-26 -46 -19 -53 9 -4 18 -13 25 -29 25 -33 0 -38 -13 -21 -55 18 -43 52 -60
100 -51 49 9 70 43 63 102 -5 49 -35 89 -93 124 -41 26 -60 68 -40 88 12 13
18 13 30 2 9 -7 16 -19 16 -27 0 -10 9 -13 28 -11 24 3 27 7 24 33 -6 60 -64
87 -122 58z"/>
<path d="M12668 13426 c-35 -26 -37 -57 -14 -196 18 -111 26 -136 45 -151 32
-26 84 -24 117 4 23 20 27 30 25 77 0 29 -3 55 -5 58 -3 2 -17 1 -32 -2 -23
-6 -26 -11 -21 -40 6 -40 -4 -59 -29 -54 -15 3 -22 21 -36 98 -21 117 -22 156
-5 163 21 8 34 -5 41 -40 4 -17 13 -30 19 -28 47 13 46 12 35 52 -15 56 -34
73 -82 73 -23 0 -49 -6 -58 -14z"/>
<path d="M5985 12951 c-68 -17 -109 -49 -139 -108 -35 -69 -11 -72 32 -4 35
57 72 80 143 88 30 3 48 10 46 17 -4 14 -42 17 -82 7z"/>
<path d="M20517 12979 c-44 -10 -137 -56 -137 -68 0 -19 15 -17 71 12 107 55
248 48 367 -18 25 -14 47 -23 50 -21 19 20 -60 68 -151 92 -58 15 -142 17
-200 3z"/>
<path d="M21331 13244 c0 -11 3 -14 6 -6 3 7 2 16 -1 19 -3 4 -6 -2 -5 -13z"/>
<path d="M11160 12430 c-66 -36 -158 -53 -255 -47 -49 2 -97 6 -105 8 -12 3
-15 -7 -16 -51 -1 -81 -40 -160 -100 -202 -25 -18 -54 -38 -63 -45 -9 -6 -12
-15 -8 -19 11 -11 92 35 126 71 35 37 83 158 76 188 -6 22 -5 22 117 23 100 1
134 5 182 22 72 27 109 49 101 62 -8 13 -14 12 -55 -10z"/>
<path d="M20554 12743 c-18 -42 -13 -98 10 -121 31 -31 66 13 66 84 0 78 -49
102 -76 37z"/>
<path d="M20303 12658 c-7 -24 -37 -83 -69 -133 -128 -201 -144 -247 -102
-300 11 -15 49 -40 82 -55 71 -33 106 -63 106 -90 0 -11 7 -20 15 -20 19 0 19
23 1 59 -10 18 -41 41 -88 66 -40 21 -81 45 -90 53 -37 31 -16 97 72 227 87
128 129 235 92 235 -4 0 -13 -19 -19 -42z"/>
<path d="M20895 11935 c-76 -57 -183 -110 -260 -130 -108 -28 -201 1 -260 82
-30 42 -55 55 -55 29 0 -24 79 -104 126 -126 39 -19 57 -22 132 -18 73 4 99
10 164 41 91 42 215 123 229 149 17 31 -12 21 -76 -27z"/>
<path d="M20040 12680 c-17 -31 -8 -121 12 -134 14 -8 21 -7 34 6 21 20 30 98
15 127 -15 27 -47 27 -61 1z"/>
<path d="M5700 12035 c0 -21 72 -71 128 -89 48 -16 160 -36 200 -36 12 0 22 6
22 13 0 8 -30 17 -92 25 -95 13 -194 50 -224 83 -21 23 -34 24 -34 4z"/>
<path d="M21576 12643 c-6 -14 -5 -15 5 -6 7 7 10 15 7 18 -3 3 -9 -2 -12 -12z"/>
<path d="M13721 12073 c-30 -75 -63 -158 -73 -185 l-18 -48 25 0 c17 0 28 7
34 23 5 12 38 95 74 185 l65 162 -27 0 c-24 0 -30 -9 -80 -137z"/>
<path d="M13860 12097 c0 -18 11 -28 52 -45 28 -12 48 -25 44 -29 -4 -5 -26
-15 -49 -24 -28 -11 -43 -23 -45 -38 -2 -11 -1 -21 3 -21 3 0 39 14 80 32 60
26 75 37 75 53 0 22 -3 24 -107 71 l-53 24 0 -23z"/>
<path d="M13503 12078 c-95 -40 -97 -58 -10 -97 100 -45 109 -47 105 -21 -2
16 -18 28 -57 45 l-53 22 56 23 c39 17 56 29 56 42 0 24 -13 22 -97 -14z"/>
<path d="M16450 12066 c0 -7 20 -29 45 -47 32 -24 63 -64 105 -136 33 -56 60
-105 60 -108 0 -23 73 -235 81 -235 15 0 11 26 -22 139 -43 149 -133 307 -205
361 -59 44 -64 46 -64 26z"/>
<path d="M16550 11822 c0 -4 16 -23 35 -42 29 -28 35 -41 35 -77 0 -32 4 -43
15 -43 11 0 15 12 15 48 0 42 -4 52 -38 85 -36 35 -62 47 -62 29z"/>
<path d="M16469 11783 c-1 -5 0 -12 1 -18 2 -5 5 -37 9 -69 3 -34 11 -61 19
-64 17 -5 16 79 -2 123 -14 33 -25 44 -27 28z"/>
<path d="M16377 11624 c-3 -3 10 -27 30 -52 39 -52 51 -77 62 -139 12 -64 -16
-55 -112 34 -32 29 -62 53 -68 53 -43 0 88 -120 179 -165 l73 -36 59 32 c56
30 220 178 220 199 0 21 -29 8 -62 -27 -55 -61 -139 -133 -177 -153 -57 -28
-77 -14 -83 58 -3 32 -13 73 -22 90 l-16 30 31 7 c16 4 56 4 88 0 33 -4 61 -3
63 2 3 4 1 22 -3 38 l-8 30 -81 -1 c-72 -2 -83 -4 -97 -24 -14 -20 -17 -20
-25 -6 -10 19 -43 38 -51 30z m233 -36 c0 -5 -29 -8 -65 -8 -36 0 -65 3 -65 8
0 4 29 7 65 7 36 0 65 -3 65 -7z"/>
<path d="M23670 10773 c0 -68 13 -133 26 -133 16 0 18 38 8 114 -7 51 -34 66
-34 19z"/>
<path d="M23693 10370 c4 -84 7 -280 7 -435 0 -315 1 -318 64 -318 44 0 81 29
66 53 -8 12 -11 12 -28 -3 -20 -19 -48 -22 -57 -8 -3 5 -8 160 -11 343 -6 400
-13 510 -33 516 -12 4 -13 -19 -8 -148z"/>
<path d="M19435 10481 c-3 -6 -3 -47 1 -91 5 -62 10 -80 22 -80 13 0 14 13 9
82 -7 80 -18 111 -32 89z"/>
<path d="M23956 10378 c-3 -7 -7 -60 -10 -118 -7 -135 -30 -271 -67 -386 -33
-104 -34 -114 -15 -114 23 0 77 196 101 362 17 121 20 268 5 268 -6 0 -12 -6
-14 -12z"/>
<path d="M19233 10234 c3 -27 22 -124 41 -215 61 -283 133 -509 162 -509 19 0
18 4 -15 90 -39 100 -84 272 -130 493 -24 115 -42 182 -51 185 -10 4 -12 -6
-7 -44z"/>
<path d="M19460 10122 c0 -11 55 -342 75 -447 8 -44 14 -110 15 -147 0 -57 -3
-69 -20 -78 -28 -15 -25 -30 5 -30 19 0 29 9 42 35 18 39 15 76 -46 430 -17
99 -34 195 -37 213 -3 19 -11 32 -19 32 -8 0 -15 -4 -15 -8z"/>
<path d="M18399 8809 c-22 -43 -30 -86 -40 -229 -10 -159 -3 -303 15 -297 7 2
13 75 17 223 4 171 9 227 22 257 9 21 21 36 26 32 6 -3 30 -47 54 -99 51 -108
91 -146 162 -154 36 -4 45 -1 45 10 0 10 -14 18 -42 22 -55 9 -114 70 -147
152 -13 32 -30 69 -38 82 -18 29 -58 29 -74 1z"/>
<path d="M25390 7967 c0 -28 -49 -58 -150 -91 -142 -46 -177 -64 -190 -97 -14
-33 -5 -68 18 -71 9 -1 103 -2 207 -2 l190 -1 68 -32 c60 -28 67 -30 67 -14 0
26 -100 68 -191 81 -47 6 -114 7 -183 2 -119 -10 -146 -7 -146 14 0 22 43 44
173 90 82 30 129 52 145 69 25 30 29 65 7 65 -8 0 -15 -6 -15 -13z"/>
<path d="M15920 10110 c0 -14 59 -107 121 -191 50 -68 59 -103 37 -139 -18
-29 1 -39 23 -11 29 36 24 82 -16 137 -60 85 -126 184 -132 199 -6 17 -33 20
-33 5z"/>
<path d="M15940 9955 c0 -14 -9 -34 -20 -45 -31 -31 -24 -39 28 -37 26 1 54
-1 62 -3 9 -3 15 1 15 9 0 8 -14 18 -32 23 -30 8 -31 11 -26 43 4 28 2 35 -11
35 -10 0 -16 -9 -16 -25z"/>
<path d="M16290 9841 c0 -21 -84 -102 -156 -150 -77 -51 -124 -41 -216 44 -53
50 -88 68 -88 47 0 -4 32 -35 70 -70 75 -65 129 -88 184 -78 36 7 148 88 200
146 37 41 47 80 21 80 -8 0 -15 -9 -15 -19z"/>
<path d="M13006 10429 c-26 -20 -26 -21 -26 -168 0 -160 7 -183 56 -195 38
-10 89 10 103 40 6 14 11 43 11 64 0 38 -2 40 -30 40 -28 0 -30 -2 -30 -40 0
-47 -24 -65 -46 -35 -15 20 -20 188 -8 233 10 37 48 26 52 -15 3 -29 7 -33 33
-33 25 0 29 4 29 28 0 48 -12 72 -41 87 -39 21 -72 19 -103 -6z"/>
<path d="M13250 10315 c0 -33 -2 -35 -35 -35 -28 0 -35 -4 -35 -19 0 -15 8
-21 33 -23 29 -3 32 -6 35 -40 3 -30 7 -38 23 -38 16 0 19 7 19 40 0 22 3 39
8 39 36 -6 62 3 62 21 0 16 -7 20 -35 20 -33 0 -35 2 -35 35 0 28 -4 35 -20
35 -16 0 -20 -7 -20 -35z"/>
<path d="M13460 10315 c0 -33 -2 -35 -35 -35 -28 0 -35 -4 -35 -20 0 -16 7
-20 35 -20 34 0 35 -1 35 -40 0 -33 3 -40 19 -40 16 0 20 8 23 38 3 34 6 37
36 40 24 2 32 8 32 23 0 15 -7 19 -35 19 -33 0 -35 2 -35 35 0 28 -4 35 -20
35 -16 0 -20 -7 -20 -35z"/>
<path d="M10628 8917 c-70 -63 -143 -196 -184 -335 -39 -132 -39 -132 -21
-132 7 0 26 47 45 113 44 147 122 288 186 336 44 33 60 61 34 61 -7 -1 -34
-20 -60 -43z"/>
<path d="M10547 8692 c-32 -33 -37 -44 -37 -85 0 -35 4 -47 15 -47 11 0 15 11
15 43 0 35 6 49 30 72 28 27 40 55 22 55 -4 0 -25 -17 -45 -38z"/>
<path d="M10655 8669 c-4 -6 -9 -37 -12 -70 -5 -49 -3 -59 10 -59 11 0 16 14
19 53 2 28 8 60 12 70 6 12 4 17 -7 17 -9 0 -19 -5 -22 -11z"/>
<path d="M10732 8518 c-20 -20 -22 -21 -40 -5 -14 13 -37 17 -91 17 -68 0 -72
-1 -81 -26 -17 -44 -14 -47 48 -40 31 4 71 4 89 0 l31 -6 -19 -42 c-10 -22
-19 -60 -19 -83 0 -37 -3 -43 -25 -49 -35 -9 -95 29 -181 115 -67 66 -94 84
-94 62 0 -15 122 -135 172 -169 69 -48 94 -49 167 -13 57 29 171 124 171 143
0 16 -26 7 -55 -20 -119 -109 -137 -115 -124 -47 10 53 28 91 65 134 32 38 20
63 -14 29z m-139 -25 c-7 -2 -21 -2 -30 0 -10 3 -4 5 12 5 17 0 24 -2 18 -5z
m70 0 c-7 -2 -21 -2 -30 0 -10 3 -4 5 12 5 17 0 24 -2 18 -5z"/>
<path d="M13070 8870 l0 -190 30 0 30 0 0 74 0 74 39 7 c22 3 47 15 56 24 35
40 31 145 -7 181 -17 16 -36 20 -85 20 l-63 0 0 -190z m112 108 c8 -44 -6 -83
-30 -86 -21 -3 -22 0 -22 52 0 52 2 56 24 56 17 0 25 -7 28 -22z"/>
<path d="M13274 9047 c-2 -7 -3 -91 -2 -187 l3 -175 33 -3 32 -3 0 85 0 86 30
0 30 0 0 -85 0 -85 30 0 30 0 0 190 0 190 -30 0 -30 0 0 -75 0 -75 -30 0 -30
0 0 75 0 75 -30 0 c-17 0 -33 -6 -36 -13z"/>
<path d="M13500 8870 l0 -190 30 0 30 0 0 74 0 74 39 7 c22 3 46 14 55 24 22
24 31 101 17 143 -14 43 -44 58 -116 58 l-55 0 0 -190z m105 75 c0 -44 -3 -50
-22 -53 -22 -3 -23 0 -23 53 0 53 1 56 23 53 19 -3 22 -9 22 -53z"/>
<path d="M19851 8389 c-42 -8 -124 -50 -136 -69 -17 -27 11 -25 61 5 95 57
171 56 282 -6 40 -22 52 -26 52 -14 0 21 -71 63 -137 80 -63 16 -60 16 -122 4z"/>
<path d="M20405 8386 c-61 -19 -89 -36 -77 -48 6 -6 19 -5 38 5 107 55 272 34
395 -49 54 -36 73 -42 67 -21 -8 23 -113 87 -177 107 -72 23 -184 26 -246 6z"/>
<path d="M19817 8229 c-40 -24 -61 -114 -37 -160 27 -50 111 0 126 75 12 68
-38 116 -89 85z"/>
<path d="M20487 8229 c-40 -24 -61 -114 -37 -160 27 -50 111 0 126 75 12 68
-38 116 -89 85z"/>
<path d="M20023 8083 c-177 -197 -227 -303 -172 -362 12 -13 45 -38 74 -57 78
-49 98 -79 91 -131 -4 -34 -2 -43 9 -43 12 0 15 14 15 59 0 56 -2 61 -39 94
-22 19 -50 41 -63 47 -45 24 -78 63 -78 92 0 53 58 141 183 280 38 42 69 80
69 84 -1 25 -26 7 -89 -63z"/>
<path d="M19860 7432 c0 -30 59 -111 104 -141 59 -40 99 -51 184 -51 116 0
245 40 380 118 62 36 85 71 40 58 -137 -37 -405 -33 -583 8 -131 31 -125 31
-125 8z m153 -44 c83 -18 136 -22 286 -22 l183 -1 -68 -32 c-92 -42 -195 -68
-275 -67 -101 0 -182 46 -233 132 -9 16 -12 16 107 -10z"/>
<path d="M16377 8119 c7 -7 15 -10 18 -7 3 3 -2 9 -12 12 -14 6 -15 5 -6 -5z"/>
<path d="M8058 7504 c-16 -8 -28 -20 -28 -25 0 -12 14 -9 66 12 28 11 36 10
73 -9 38 -20 41 -21 41 -3 0 38 -99 55 -152 25z"/>
<path d="M8011 7377 c-25 -142 -17 -168 90 -318 49 -68 89 -131 89 -140 0 -9
-35 -44 -77 -78 -42 -33 -85 -73 -95 -88 -22 -35 -24 -93 -3 -93 10 0 15 10
15 34 0 30 8 42 58 85 31 27 71 62 89 78 18 15 35 40 38 54 6 26 3 33 -140
236 -38 54 -40 60 -40 132 0 42 3 95 8 119 6 33 4 42 -7 42 -9 0 -18 -21 -25
-63z"/>
<path d="M8132 7388 c-30 -30 0 -138 37 -138 36 0 42 67 11 118 -21 35 -30 38
-48 20z"/>
<path d="M7702 7348 c-35 -35 6 -163 51 -156 20 3 22 9 22 60 0 46 -5 62 -24
82 -28 29 -32 31 -49 14z"/>
<path d="M7600 6602 c0 -15 78 -72 128 -95 72 -32 171 -30 245 7 31 15 57 34
57 42 0 19 -2 18 -61 -12 -101 -50 -215 -39 -296 31 -39 33 -73 46 -73 27z"/>
<path d="M9800 7216 c0 -38 206 -115 378 -141 34 -6 42 -4 42 9 0 9 -3 16 -6
16 -3 0 -51 9 -105 20 -98 20 -232 67 -273 96 -26 18 -36 18 -36 0z"/>
<path d="M9516 5403 c-13 -14 -4 -24 43 -47 72 -37 200 -137 249 -195 24 -28
48 -51 53 -51 41 0 -59 117 -171 200 -73 53 -164 102 -174 93z"/>
<path d="M9430 5209 c0 -6 16 -29 35 -52 40 -46 77 -120 110 -216 21 -64 45
-92 45 -53 0 23 -33 120 -61 182 -42 91 -129 185 -129 139z"/>
<path d="M21181 6738 c-25 -86 -25 -88 -8 -88 8 0 21 26 32 63 9 34 20 70 22
80 3 11 0 17 -9 17 -10 0 -23 -25 -37 -72z"/>
<path d="M21104 6498 c-54 -169 -184 -471 -237 -555 -28 -45 -35 -77 -15 -71
16 6 107 178 158 298 58 137 139 363 134 372 -12 18 -23 5 -40 -44z"/>
<path d="M21696 6467 c3 -10 9 -15 12 -12 3 3 0 11 -7 18 -10 9 -11 8 -5 -6z"/>
<path d="M21620 6302 c6 -13 14 -21 18 -18 3 4 -2 14 -12 24 -18 16 -18 16 -6
-6z"/>
<path d="M21176 5925 c8 -37 14 -45 14 -19 0 10 -5 26 -10 34 -8 11 -9 7 -4
-15z"/>
<path d="M20650 5650 c8 -5 20 -10 25 -10 6 0 3 5 -5 10 -8 5 -19 10 -25 10
-5 0 -3 -5 5 -10z"/>
<path d="M20944 5632 c3 -6 -2 -15 -11 -21 -10 -6 -13 -11 -7 -11 20 0 37 27
23 36 -7 4 -9 3 -5 -4z"/>
<path d="M20655 5620 c3 -5 8 -10 11 -10 2 0 4 5 4 10 0 6 -5 10 -11 10 -5 0
-7 -4 -4 -10z"/>
<path d="M20100 6264 c-30 -13 -107 -35 -170 -49 -178 -40 -306 -83 -340 -115
-24 -22 -30 -37 -30 -68 0 -87 77 -246 140 -289 25 -18 47 -23 94 -23 60 0
158 13 198 26 20 6 20 3 14 -57 -18 -180 -18 -226 -2 -280 21 -70 32 -87 46
-73 9 9 8 19 -3 40 -31 61 -40 143 -23 224 19 87 21 186 5 196 -6 3 -14 2 -18
-4 -13 -22 -69 -34 -173 -39 l-108 -6 -35 39 c-52 56 -98 157 -103 226 -4 56
-4 57 29 78 44 26 157 62 288 90 132 27 271 77 271 96 0 18 -14 16 -80 -12z"/>
<path d="M20002 5975 c-19 -14 -59 -34 -90 -45 -33 -13 -77 -40 -107 -68 -57
-53 -63 -62 -40 -62 9 0 38 20 64 45 26 25 54 45 60 45 7 0 32 -11 56 -25 52
-31 69 -17 24 18 l-32 25 44 22 c53 27 80 50 73 61 -7 13 -15 10 -52 -16z"/>
<path d="M5690 4362 c0 -5 22 -52 49 -105 55 -108 91 -207 91 -250 0 -36 16
-67 35 -67 9 0 31 25 51 56 86 134 156 374 109 374 -10 0 -15 -10 -15 -27 0
-49 -41 -177 -83 -262 -46 -92 -67 -111 -67 -62 0 43 -54 185 -103 271 -38 66
-67 98 -67 72z"/>
<path d="M5140 3475 c-36 -6 -121 -22 -190 -35 -128 -24 -180 -22 -180 5 0 8
-7 15 -15 15 -23 0 -18 -37 7 -54 32 -23 82 -20 253 14 169 34 228 38 205 16
-25 -22 -96 -45 -284 -92 -285 -70 -446 -129 -446 -161 0 -19 14 -16 68 11 69
35 125 52 360 112 252 64 322 89 339 124 23 47 -15 63 -117 45z"/>
<path d="M5918 3468 c-8 -20 9 -137 31 -208 36 -121 105 -270 129 -278 20 -6
14 14 -27 101 -51 109 -90 235 -99 321 -6 64 -23 95 -34 64z"/>
<path d="M13131 4594 c0 -11 3 -14 6 -6 3 7 2 16 -1 19 -3 4 -6 -2 -5 -13z"/>
<path d="M8861 3614 c0 -11 3 -14 6 -6 3 7 2 16 -1 19 -3 4 -6 -2 -5 -13z"/>
<path d="M7700 4421 c0 -16 39 -37 105 -56 122 -35 135 -53 135 -195 0 -118
-16 -162 -88 -251 -72 -90 -86 -102 -109 -97 -43 8 -41 98 4 164 26 39 36 67
48 137 5 35 4 37 -19 37 -14 0 -41 14 -61 32 l-37 31 -51 -18 c-92 -32 -108
-43 -101 -69 7 -30 -19 -139 -51 -211 -29 -66 -30 -75 -11 -75 22 0 77 154 83
231 l5 65 60 23 c59 23 59 23 81 3 12 -11 32 -25 45 -31 31 -16 27 -37 -9 -50
-27 -9 -30 -14 -24 -33 12 -36 9 -69 -10 -118 -29 -77 -2 -150 55 -150 29 0
73 39 123 108 28 38 32 42 35 23 4 -25 19 -28 26 -3 21 71 38 208 34 282 -7
133 -18 146 -163 197 -105 36 -105 36 -105 24z m50 -367 c0 -8 -5 -12 -10 -9
-6 4 -8 11 -5 16 9 14 15 11 15 -7z"/>
<path d="M7070 3540 c0 -28 150 -160 182 -160 21 0 3 28 -33 50 -23 14 -61 46
-85 73 -44 46 -64 58 -64 37z"/>
<path d="M23471 3884 c0 -11 3 -14 6 -6 3 7 2 16 -1 19 -3 4 -6 -2 -5 -13z"/>
<path d="M23781 3744 c0 -11 3 -14 6 -6 3 7 2 16 -1 19 -3 4 -6 -2 -5 -13z"/>
<path d="M22173 4200 c0 -25 2 -35 4 -22 2 12 2 32 0 45 -2 12 -4 2 -4 -23z"/>
<path d="M20832 4090 c0 -14 2 -19 5 -12 2 6 2 18 0 25 -3 6 -5 1 -5 -13z"/>
<path d="M20635 3609 c-4 -6 -5 -12 -2 -15 2 -3 7 2 10 11 7 17 1 20 -8 4z"/>
<path d="M19300 15472 c0 -4 7 -18 16 -30 14 -21 14 -26 -15 -72 -17 -28 -31
-55 -31 -60 0 -14 107 -120 121 -120 6 0 33 13 59 29 l47 29 39 -23 c37 -22
39 -26 44 -86 l5 -63 45 -17 c25 -9 63 -20 85 -23 l40 -7 29 56 28 55 48 0
c48 0 48 0 79 -55 17 -30 34 -55 38 -55 4 0 42 9 85 21 l78 21 0 63 0 63 42
25 42 24 48 -28 c27 -16 53 -29 57 -29 12 0 100 79 112 101 5 11 7 24 3 30 -3
6 -29 -14 -59 -47 l-53 -57 -56 32 -55 32 -38 -24 c-21 -13 -46 -26 -55 -30
-15 -5 -18 -19 -18 -70 l0 -64 -62 -18 c-37 -10 -64 -13 -66 -7 -1 5 -16 30
-32 56 l-30 47 -63 -3 -62 -3 -28 -53 c-21 -38 -33 -52 -45 -48 -10 2 -38 9
-64 16 l-48 13 0 62 0 63 -56 32 -56 32 -50 -32 c-56 -34 -56 -34 -115 28 -18
19 -30 39 -26 46 4 6 18 29 31 50 24 39 24 40 7 73 -16 29 -45 46 -45 25z"/>
<path d="M7550 15454 c0 -3 7 -18 17 -34 16 -27 15 -29 -15 -79 -18 -28 -32
-55 -32 -59 1 -8 73 -85 107 -116 22 -18 23 -18 79 14 l57 33 43 -24 44 -24 0
-66 c0 -76 0 -76 117 -103 69 -16 64 -19 107 57 26 46 28 47 75 47 49 0 49 0
83 -57 39 -66 38 -65 151 -32 l69 20 -4 66 -3 66 46 25 45 26 52 -32 c29 -18
56 -32 60 -32 11 0 132 122 132 132 0 20 -29 3 -80 -47 l-55 -54 -54 33 -54
34 -58 -32 -59 -31 0 -67 0 -67 -52 -15 c-87 -25 -85 -25 -120 34 l-33 55 -67
2 -68 1 -31 -58 c-35 -63 -31 -62 -121 -33 l-48 15 0 63 c0 68 0 67 -71 108
l-46 26 -56 -34 -57 -34 -50 50 c-47 47 -50 53 -37 72 7 12 23 38 35 57 l21
36 -21 32 c-17 27 -48 44 -48 26z"/>
</g>
</svg>
