<?xml version="1.0" standalone="no"?>
<svg xmlns:xlink="http://www.w3.org/1999/xlink" id="wave" style="transform:rotate(180deg); transition: 0.3s" viewBox="0 0 1440 490" version="1.1" xmlns="http://www.w3.org/2000/svg"><defs><linearGradient id="sw-gradient-0" x1="0" x2="0" y1="1" y2="0"><stop stop-color="rgba(29.306, 173.632, 203.061, 1)" offset="0%"/><stop stop-color="rgba(225.603, 225.829, 65.741, 1)" offset="100%"/></linearGradient></defs><path style="transform:translate(0, 0px); opacity:1" fill="url(#sw-gradient-0)" d="M0,196L16,204.2C32,212,64,229,96,236.8C128,245,160,245,192,245C224,245,256,245,288,245C320,245,352,245,384,220.5C416,196,448,147,480,147C512,147,544,196,576,236.8C608,278,640,310,672,318.5C704,327,736,310,768,302.2C800,294,832,294,864,261.3C896,229,928,163,960,179.7C992,196,1024,294,1056,277.7C1088,261,1120,131,1152,65.3C1184,0,1216,0,1248,57.2C1280,114,1312,229,1344,302.2C1376,376,1408,408,1440,351.2C1472,294,1504,147,1536,147C1568,147,1600,294,1632,310.3C1664,327,1696,212,1728,171.5C1760,131,1792,163,1824,163.3C1856,163,1888,131,1920,130.7C1952,131,1984,163,2016,204.2C2048,245,2080,294,2112,261.3C2144,229,2176,114,2208,130.7C2240,147,2272,294,2288,367.5L2304,441L2304,490L2288,490C2272,490,2240,490,2208,490C2176,490,2144,490,2112,490C2080,490,2048,490,2016,490C1984,490,1952,490,1920,490C1888,490,1856,490,1824,490C1792,490,1760,490,1728,490C1696,490,1664,490,1632,490C1600,490,1568,490,1536,490C1504,490,1472,490,1440,490C1408,490,1376,490,1344,490C1312,490,1280,490,1248,490C1216,490,1184,490,1152,490C1120,490,1088,490,1056,490C1024,490,992,490,960,490C928,490,896,490,864,490C832,490,800,490,768,490C736,490,704,490,672,490C640,490,608,490,576,490C544,490,512,490,480,490C448,490,416,490,384,490C352,490,320,490,288,490C256,490,224,490,192,490C160,490,128,490,96,490C64,490,32,490,16,490L0,490Z"/></svg>